<svg xmlns="http://www.w3.org/2000/svg" viewBox="0 0 70 70"><path d="M55.21,56a38.09,38.09,0,0,0-2.8-7.06,20.36,20.36,0,0,0-2.33-3.62" style="fill:none;stroke:#fff;stroke-miterlimit:10"/><line x1="20.22" y1="17.68" x2="14.38" y2="14.32" style="fill:none;stroke:#fff;stroke-miterlimit:10"/><line x1="49.79" y1="17.68" x2="55.63" y2="14.32" style="fill:none;stroke:#fff;stroke-miterlimit:10"/><rect x="13.75" y="13.75" width="42.5" height="42.5" rx="2.21" style="fill:none;stroke:#fff;stroke-miterlimit:10"/><path d="M14.8,56a38.09,38.09,0,0,1,2.8-7.06,20,20,0,0,1,2.32-3.62" style="fill:none;stroke:#fff;stroke-miterlimit:10"/><path d="M51.78,31.71s0,4.71,0,5c0,2.27-.35,7.21-2.12,9.15s-6.14,2.2-10.19,2.2H30.54c-4.05,0-8.53-.38-10.19-2.2S18.28,39,18.23,36.74c0-.32,0-5,0-5s0-4.7,0-5c.05-2.27.35-7.22,2.12-9.15s6.14-2.2,10.19-2.2h8.92c4,0,8.53.38,10.19,2.2s2.08,6.88,2.12,9.15C51.78,27,51.78,31.71,51.78,31.71Z" style="fill:none;stroke:#fff;stroke-miterlimit:10"/></svg>