<svg xmlns="http://www.w3.org/2000/svg" viewBox="0 0 190 191"><polyline points="83.97 84.11 85.31 3.83 111.33 3.83" style="fill:none;stroke:#000;stroke-miterlimit:10"/><polygon points="105.33 6.09 121.04 3.48 105.33 0.55 105.33 6.09"/><path d="M95.44,160.93c-3.77-.59-10.37-.78-16.35-2.79a42.35,42.35,0,0,1-14.27-8.53c-6.31-5.6-8.21-6.18-15.18-1.09-4.43,3.23-9.22,4.45-14.39,2.06a8.8,8.8,0,0,1-3.51-2.94c-2.87-4.33-5.76-8.7-8.19-13.29-2.2-4.14-1.34-8.45.87-12.43a10.69,10.69,0,0,0,.52-9.44c-2.27-5.91-1.05-11.15,2.2-16.41,5.48-8.88,14-13.91,22.68-18.91C56,73.61,62.38,70.8,69.48,69.63c5.35-.89,10.56-.43,14.23,3.68,6.76,7.56,9.92,4.63,17.12.83,2.75-1.46,5.57-2.79,8.41-4.06,4.45-2,7.59.12,10,3.6,2.58,3.72,5.79,5,10.18,3.66,3.76-1.14,7.64-1.88,11.39-3,5.64-1.73,10.06.82,14,4.18a8.94,8.94,0,0,1,2.5,5.86c.18,4,1.23,7.59,3.82,10.48,6.1,6.77,7.17,14.33,4.09,22.65-.67,1.8-1.47,3.87-2.86,5-3.26,2.71-5,6.21-6.69,9.9-3.28,7.33-8.77,11.09-17,10.71-.9,0-2.08.9-2.76,1.7C126,156.47,113.12,161.21,95.44,160.93Z"/><path d="M100.79,159.33a43.1,43.1,0,0,1-5.55-.36c-4.64-.6-8.51-1.12-12.47-1.87-7.88-1.47-13.23-4.46-16.86-9.41-2.51-3.42-5.2-5.08-8.24-5.08-2.59,0-5.39,1.19-8.57,3.65a14.88,14.88,0,0,1-8.87,3.33,10,10,0,0,1-6.89-2.67,30.41,30.41,0,0,1-4.79-6.39l-.62-1c-2.9-4.59-5.7-10.79-1.68-18.07,1.81-3.27,1.08-6.93.12-10.07-1.08-3.58-1.24-6.24-.49-8.11a58.12,58.12,0,0,1,7.59-13.73c1.68-2.19,4.36-3.58,7-4.92.57-.29,1.14-.59,1.69-.89,1.41-.76,2.81-1.55,4.21-2.33a128.33,128.33,0,0,1,15.74-7.86c3.82-1.49,8.25-1.69,12.47-1.69h1.68a9.53,9.53,0,0,1,6.63,3.46C85.37,78.61,88,80.13,91,80.13c2.79,0,6-1.31,10.2-4.11,3.43-2.31,6.6-4.23,10.73-4.44h.48a5.52,5.52,0,0,1,4.79,2.48c3.32,4.37,5.66,5.92,8.93,5.92a21.41,21.41,0,0,0,6.2-1.2c1.9-.59,3.84-1.11,5.72-1.6l3-.82a8.55,8.55,0,0,1,2.29-.28c5.21,0,11.75,3.58,12.8,8.72a69,69,0,0,0,2.19,8.58A18.46,18.46,0,0,0,161,98.21c6,8.25,5.6,16.45-1.28,24.37a33.2,33.2,0,0,0-3.75,5.78,42.93,42.93,0,0,1-3.14,5.06,24.48,24.48,0,0,1-7,6.45,9.39,9.39,0,0,1-4.48,1.53c-1.85,0-3.23-1.05-4.7-2.92-1,5.11-4.21,9.32-9.87,12.82C118.18,156.63,109.43,159.33,100.79,159.33Z" style="fill:#fff"/><path d="M45.6,89.41a.44.44,0,0,1,.45-.45H47.2c.27,0,.35.18.41.43L49.51,97h0l1.94-7.61c.06-.25.15-.43.42-.43H53a.44.44,0,0,1,.45.45v9.87a.45.45,0,0,1-.45.45h-.29a.45.45,0,0,1-.45-.45V90.89h0l-2.13,8.4c-.06.26-.13.44-.4.44h-.39c-.27,0-.36-.18-.42-.44l-2.13-8.4h0v8.39a.45.45,0,0,1-.45.45h-.27a.44.44,0,0,1-.45-.45Z"/><path d="M57.54,89.39a.56.56,0,0,1,.55-.43H59a.56.56,0,0,1,.55.43l2.37,9.9a.35.35,0,0,1-.34.44h-.54c-.27,0-.38-.18-.44-.44L60,96.67H57.07l-.58,2.62c-.06.26-.14.44-.41.44h-.54a.35.35,0,0,1-.34-.44Zm2.2,6.08-1.18-5.31h0l-1.19,5.31Z"/><path d="M64.45,90.17h-1.9a.44.44,0,0,1-.45-.45v-.31a.44.44,0,0,1,.45-.45h5.08a.44.44,0,0,1,.45.45v.31a.44.44,0,0,1-.45.45H65.74v9.11a.44.44,0,0,1-.45.45H64.9a.45.45,0,0,1-.45-.45Z"/><path d="M68.74,94.3c0-3.33,1-5.48,3.29-5.48,1.68,0,2.56,1,2.91,3a.42.42,0,0,1-.36.48l-.42,0c-.24,0-.38-.16-.44-.4C73.42,90.62,72.88,90,72,90c-1.31,0-2,1.39-2,4.26,0,3.06.58,4.36,2,4.36,1,0,1.53-.69,1.8-2.1,0-.24.15-.43.39-.4l.48,0a.41.41,0,0,1,.36.48c-.37,2.13-1.35,3.18-3,3.18C69.63,99.86,68.74,97.85,68.74,94.3Z"/><path d="M76.92,89.41a.44.44,0,0,1,.45-.45h.4a.44.44,0,0,1,.45.45V93.5h3.57V89.41a.44.44,0,0,1,.45-.45h.39a.44.44,0,0,1,.45.45v9.87a.44.44,0,0,1-.45.45h-.39a.45.45,0,0,1-.45-.45V94.72H78.22v4.56a.44.44,0,0,1-.45.45h-.4a.44.44,0,0,1-.45-.45Z"/><path d="M85.44,89.41a.44.44,0,0,1,.45-.45h4.23a.44.44,0,0,1,.45.45v.31a.44.44,0,0,1-.45.45H86.73v3.38h2.4a.44.44,0,0,1,.45.45v.28a.44.44,0,0,1-.45.45h-2.4v3.78h3.61a.44.44,0,0,1,.45.45v.32a.44.44,0,0,1-.45.45H85.89a.44.44,0,0,1-.45-.45Z"/><path d="M92.17,96.94l.41-.08a.44.44,0,0,1,.48.38c.27,1,.73,1.45,1.69,1.45a1.46,1.46,0,0,0,1.62-1.56c0-2.62-4.39-2.28-4.39-5.68a2.44,2.44,0,0,1,2.65-2.63,2.57,2.57,0,0,1,2.72,2.27.44.44,0,0,1-.35.51l-.3.06a.46.46,0,0,1-.52-.36c-.27-.86-.72-1.31-1.55-1.31a1.3,1.3,0,0,0-1.45,1.38c0,2.45,4.45,2.15,4.45,5.66a2.64,2.64,0,0,1-2.92,2.83,2.67,2.67,0,0,1-2.87-2.41A.43.43,0,0,1,92.17,96.94Z"/><path d="M101.79,89.39a.36.36,0,0,1,.36-.43h.49a.45.45,0,0,1,.45.43l1.4,7.7h0l1.33-7.7a.46.46,0,0,1,.45-.43h.59a.46.46,0,0,1,.45.43l1.33,7.7h0l1.4-7.7a.47.47,0,0,1,.46-.43H111a.36.36,0,0,1,.36.43l-2,9.9a.55.55,0,0,1-.54.44h-.49a.48.48,0,0,1-.47-.44l-1.33-7.69h0l-1.31,7.69a.45.45,0,0,1-.45.44h-.52a.55.55,0,0,1-.54-.44Z"/><path d="M113,89.41a.44.44,0,0,1,.45-.45h.4a.44.44,0,0,1,.45.45V93.5h3.57V89.41a.44.44,0,0,1,.45-.45h.39a.44.44,0,0,1,.45.45v9.87a.44.44,0,0,1-.45.45h-.39a.45.45,0,0,1-.45-.45V94.72h-3.57v4.56a.44.44,0,0,1-.45.45h-.4a.44.44,0,0,1-.45-.45Z"/><path d="M123.21,89.39a.56.56,0,0,1,.55-.43h.92a.56.56,0,0,1,.55.43l2.37,9.9a.35.35,0,0,1-.34.44h-.54c-.27,0-.38-.18-.44-.44l-.6-2.62h-2.94l-.58,2.62c-.06.26-.14.44-.41.44h-.54a.35.35,0,0,1-.34-.44Zm2.2,6.08-1.18-5.31h0L123,95.47Z"/><path d="M130.12,90.17h-1.9a.44.44,0,0,1-.45-.45v-.31a.44.44,0,0,1,.45-.45h5.08a.44.44,0,0,1,.45.45v.31a.44.44,0,0,1-.45.45h-1.89v9.11a.44.44,0,0,1-.45.45h-.39a.45.45,0,0,1-.45-.45Z"/><path d="M135.21,92.45l.7-1.81h-.1a.44.44,0,0,1-.45-.45v-.78a.44.44,0,0,1,.45-.45h.54a.43.43,0,0,1,.43.45v1a1.33,1.33,0,0,1-.16.59l-.6,1.45c-.09.21-.15.36-.38.36h-.18A.27.27,0,0,1,135.21,92.45Z"/><path d="M138.84,96.94l.4-.08a.44.44,0,0,1,.48.38c.27,1,.74,1.45,1.7,1.45A1.46,1.46,0,0,0,143,97.13c0-2.62-4.4-2.28-4.4-5.68a2.45,2.45,0,0,1,2.66-2.63A2.55,2.55,0,0,1,144,91.09a.43.43,0,0,1-.34.51l-.3.06a.47.47,0,0,1-.53-.36c-.27-.86-.72-1.31-1.54-1.31a1.31,1.31,0,0,0-1.46,1.38c0,2.45,4.46,2.15,4.46,5.66a2.92,2.92,0,0,1-5.79.42A.42.42,0,0,1,138.84,96.94Z"/><path d="M59.67,107.39A.36.36,0,0,1,60,107h.49c.26,0,.4.18.45.43l1.4,7.7h0l1.33-7.7c0-.25.19-.43.45-.43h.58a.45.45,0,0,1,.45.43l1.34,7.7h0l1.39-7.7a.48.48,0,0,1,.47-.43h.47a.35.35,0,0,1,.35.43l-2,9.9a.56.56,0,0,1-.54.44h-.5a.47.47,0,0,1-.46-.44l-1.34-7.69h0l-1.3,7.69c0,.26-.19.44-.45.44h-.52a.57.57,0,0,1-.55-.44Z"/><path d="M70.87,107.41a.44.44,0,0,1,.45-.45h2c2.31,0,3.35.9,3.35,2.86A2.67,2.67,0,0,1,75,112.54l1.85,4.77a.3.3,0,0,1-.29.42H76a.52.52,0,0,1-.5-.42L73.8,113H72.16v4.29a.45.45,0,0,1-.45.45h-.39a.44.44,0,0,1-.45-.45Zm2.6,4.41a1.69,1.69,0,0,0,1.92-1.88c0-1.56-.89-1.8-2-1.8h-1.2v3.68Z"/><path d="M78.78,107.41a.44.44,0,0,1,.45-.45h.41a.44.44,0,0,1,.45.45v9.87a.45.45,0,0,1-.45.45h-.41a.45.45,0,0,1-.45-.45Z"/><path d="M84,108.17H82.1a.44.44,0,0,1-.45-.45v-.31a.44.44,0,0,1,.45-.45h5.08a.44.44,0,0,1,.45.45v.31a.44.44,0,0,1-.45.45H85.29v9.11a.44.44,0,0,1-.45.45h-.39a.45.45,0,0,1-.45-.45Z"/><path d="M90.79,108.17H88.88a.44.44,0,0,1-.45-.45v-.31a.44.44,0,0,1,.45-.45H94a.44.44,0,0,1,.46.45v.31a.44.44,0,0,1-.46.45H92.08v9.11a.45.45,0,0,1-.46.45h-.39a.44.44,0,0,1-.44-.45Z"/><path d="M96,107.41a.44.44,0,0,1,.45-.45h4.23a.44.44,0,0,1,.45.45v.31a.44.44,0,0,1-.45.45H97.28v3.38h2.4a.44.44,0,0,1,.45.45v.28a.44.44,0,0,1-.45.45h-2.4v3.78h3.61a.44.44,0,0,1,.45.45v.32a.44.44,0,0,1-.45.45H96.44a.44.44,0,0,1-.45-.45Z"/><path d="M103,107.41a.44.44,0,0,1,.45-.45h1a.54.54,0,0,1,.52.4l3.05,7h0v-7a.44.44,0,0,1,.45-.45h.3a.44.44,0,0,1,.45.45v9.87a.45.45,0,0,1-.45.45h-.42a.57.57,0,0,1-.53-.41l-3.59-8.16h0v8.12a.44.44,0,0,1-.45.45h-.28a.44.44,0,0,1-.45-.45Z"/><path d="M114.11,112.33c0-3.63,1.09-5.51,3.37-5.51s3.39,1.88,3.39,5.51-1.14,5.53-3.39,5.53S114.11,115.94,114.11,112.33Zm5.44,0c0-3-.73-4.32-2.07-4.32s-2.07,1.35-2.07,4.32.77,4.36,2.07,4.36S119.55,115.31,119.55,112.33Z"/><path d="M122.75,107.41a.44.44,0,0,1,.45-.45h1a.54.54,0,0,1,.52.4l3,7h0v-7a.44.44,0,0,1,.45-.45h.3a.44.44,0,0,1,.45.45v9.87a.45.45,0,0,1-.45.45h-.42a.57.57,0,0,1-.53-.41l-3.6-8.16h0v8.12a.44.44,0,0,1-.45.45h-.28a.44.44,0,0,1-.45-.45Z"/><path d="M49.57,131.27l-2.49-5.91a.29.29,0,0,1,.28-.4H48a.53.53,0,0,1,.51.4l1.73,4.38h0l1.85-4.38a.56.56,0,0,1,.54-.4h.54a.28.28,0,0,1,.27.4l-2.55,5.91v4a.45.45,0,0,1-.45.45H50a.44.44,0,0,1-.44-.45Z"/><path d="M54.19,130.33c0-3.63,1.09-5.51,3.37-5.51S61,126.7,61,130.33s-1.14,5.53-3.39,5.53S54.19,133.94,54.19,130.33Zm5.44,0c0-3-.73-4.32-2.07-4.32s-2.07,1.35-2.07,4.32.76,4.36,2.07,4.36S59.63,133.31,59.63,130.33Z"/><path d="M62.76,125.41a.44.44,0,0,1,.45-.45h.41a.44.44,0,0,1,.45.45v7.21c0,1.47.54,2.06,1.74,2.06s1.83-.59,1.83-2.06v-7.21a.44.44,0,0,1,.45-.45h.39a.44.44,0,0,1,.45.45v7c0,2.23-1,3.42-3.12,3.42s-3.05-1.19-3.05-3.42Z"/><path d="M71.22,125.41a.44.44,0,0,1,.45-.45h2c2.31,0,3.37.9,3.37,2.86a2.67,2.67,0,0,1-1.7,2.72l1.84,4.77a.29.29,0,0,1-.28.42h-.61c-.28,0-.42-.17-.52-.42L74.17,131H72.51v4.29a.44.44,0,0,1-.44.45h-.4a.45.45,0,0,1-.45-.45Zm2.61,4.41a1.69,1.69,0,0,0,1.92-1.88c0-1.56-.9-1.8-2-1.8h-1.2v3.68Z"/><path d="M82.21,125.41a.44.44,0,0,1,.45-.45H83a.44.44,0,0,1,.45.45v4.69h0l3.1-4.77a.69.69,0,0,1,.58-.37h.61a.24.24,0,0,1,.21.37l-2.32,3.57,2.72,6.42a.3.3,0,0,1-.28.41H87.5a.57.57,0,0,1-.53-.41l-2.16-5-1.35,1.95v3.06a.44.44,0,0,1-.45.45h-.35a.44.44,0,0,1-.45-.45Z"/><path d="M89.84,125.41a.44.44,0,0,1,.45-.45h4.23a.44.44,0,0,1,.45.45v.31a.44.44,0,0,1-.45.45H91.13v3.38h2.4A.44.44,0,0,1,94,130v.28a.44.44,0,0,1-.45.45h-2.4v3.78h3.61a.44.44,0,0,1,.45.45v.32a.44.44,0,0,1-.45.45H90.29a.45.45,0,0,1-.45-.45Z"/><path d="M98.54,131.27l-2.49-5.91a.29.29,0,0,1,.28-.4h.6c.28,0,.41.16.51.4l1.73,4.38h0l1.84-4.38a.56.56,0,0,1,.54-.4h.54a.28.28,0,0,1,.27.4l-2.55,5.91v4a.44.44,0,0,1-.45.45H99a.44.44,0,0,1-.45-.45Z"/><path d="M103.92,125.41a.44.44,0,0,1,.46-.45h1.93c2.34,0,3.46.78,3.46,2.74a2.31,2.31,0,0,1-1.42,2.31v0A2.51,2.51,0,0,1,110,132.7c0,2.35-1.48,3-3.57,3h-2.09a.45.45,0,0,1-.46-.45Zm2.39,4.15c1.11,0,2.16-.39,2.16-1.78s-1.08-1.62-2.15-1.62H105.2v3.4Zm.22,5c1.5,0,2.19-.5,2.19-1.88s-.69-2-2.19-2H105.2v3.84Z"/><path d="M111.41,130.33c0-3.63,1.09-5.51,3.37-5.51s3.39,1.88,3.39,5.51-1.14,5.53-3.39,5.53S111.41,133.94,111.41,130.33Zm5.44,0c0-3-.73-4.32-2.07-4.32s-2.07,1.35-2.07,4.32.77,4.36,2.07,4.36S116.85,133.31,116.85,130.33Z"/><path d="M121.61,125.39a.56.56,0,0,1,.55-.43h.92a.56.56,0,0,1,.55.43l2.37,9.9a.35.35,0,0,1-.34.44h-.54c-.27,0-.38-.18-.44-.44l-.6-2.62h-2.94l-.58,2.62c-.06.26-.14.44-.41.44h-.54a.35.35,0,0,1-.34-.44Zm2.2,6.08-1.18-5.31h0l-1.19,5.31Z"/><path d="M127.7,125.41a.44.44,0,0,1,.45-.45h2c2.31,0,3.36.9,3.36,2.86a2.67,2.67,0,0,1-1.7,2.72l1.85,4.77a.3.3,0,0,1-.29.42h-.61a.53.53,0,0,1-.51-.42L130.64,131H129v4.29a.45.45,0,0,1-.45.45h-.39a.44.44,0,0,1-.45-.45Zm2.61,4.41a1.69,1.69,0,0,0,1.92-1.88c0-1.56-.9-1.8-2-1.8H129v3.68Z"/><path d="M135.62,125.41a.44.44,0,0,1,.45-.45h1.6c3.06,0,4.32,1.56,4.32,5.28s-1.27,5.49-4.35,5.49h-1.57a.44.44,0,0,1-.45-.45Zm2.13,9.07c2,0,2.94-1.29,2.94-4.23s-.89-4-2.87-4h-.9v8.28Z"/></svg>