<svg xmlns="http://www.w3.org/2000/svg" viewBox="0 0 132 50"><path d="M13,25.17l.44-.08a.45.45,0,0,1,.51.4c.29,1.08.79,1.57,1.83,1.57a1.57,1.57,0,0,0,1.74-1.68c0-2.82-4.73-2.45-4.73-6.11a2.63,2.63,0,0,1,2.86-2.83,2.76,2.76,0,0,1,2.92,2.44.48.48,0,0,1-.37.55l-.33.06a.5.5,0,0,1-.56-.38c-.29-.92-.78-1.41-1.66-1.41a1.4,1.4,0,0,0-1.57,1.49c0,2.63,4.79,2.3,4.79,6.08a2.84,2.84,0,0,1-3.14,3.05c-1.76,0-2.66-.84-3.08-2.6A.46.46,0,0,1,13,25.17Z" style="fill:#fff"/><path d="M24.78,17.07a.47.47,0,0,1,.48-.48h.44a.47.47,0,0,1,.48.48v4.41H30V17.07a.47.47,0,0,1,.48-.48h.42a.48.48,0,0,1,.49.48V27.69a.48.48,0,0,1-.49.48H30.5a.47.47,0,0,1-.48-.48V22.78H26.18v4.91a.47.47,0,0,1-.48.48h-.44a.47.47,0,0,1-.48-.48Z" style="fill:#fff"/><path d="M37.86,17.07a.48.48,0,0,1,.49-.48h.43a.47.47,0,0,1,.48.48V27.69a.47.47,0,0,1-.48.48h-.43a.48.48,0,0,1-.49-.48Z" style="fill:#fff"/><path d="M45.7,17.07a.48.48,0,0,1,.49-.48h4.64a.48.48,0,0,1,.49.48v.34a.48.48,0,0,1-.49.49H47.09v3.63h2.64a.47.47,0,0,1,.49.48v.31a.48.48,0,0,1-.49.48H47.09v4.89a.47.47,0,0,1-.48.48h-.42a.48.48,0,0,1-.49-.48Z" style="fill:#fff"/><path d="M58.59,17.9H56.54a.48.48,0,0,1-.48-.49v-.34a.47.47,0,0,1,.48-.48H62a.48.48,0,0,1,.49.48v.34a.48.48,0,0,1-.49.49H60v9.79a.47.47,0,0,1-.48.48h-.42a.48.48,0,0,1-.49-.48Z" style="fill:#fff"/><rect x="0.5" y="1.38" width="73.92" height="47.25" rx="1.78" style="fill:none;stroke:#fff;stroke-miterlimit:10"/><path d="M70.64,21.36c0,5.18-.81,13.58-2.84,15.39-2.54,2.27-6,2.82-30.33,2.82S9.67,39,7.13,36.75c-2-1.81-2.84-10.21-2.84-15.39S5.1,7.77,7.13,6c2.54-2.27,6-2.81,30.34-2.81S65.26,3.69,67.8,6C69.83,7.77,70.64,16.18,70.64,21.36Z" style="fill:none;stroke:#fff;stroke-miterlimit:10"/><path d="M1.32,48.13a36.93,36.93,0,0,1,3-7.62,22.84,22.84,0,0,1,2.58-4" style="fill:none;stroke:#fff;stroke-miterlimit:10"/><path d="M73.61,48.13a36.93,36.93,0,0,0-3-7.62,22.84,22.84,0,0,0-2.58-4" style="fill:none;stroke:#fff;stroke-miterlimit:10"/><line x1="67.45" y1="5.65" x2="73.77" y2="2.02" style="fill:none;stroke:#fff;stroke-miterlimit:10"/><line x1="7.49" y1="5.65" x2="1.17" y2="2.02" style="fill:none;stroke:#fff;stroke-miterlimit:10"/><path d="M130.16,48.35A42.76,42.76,0,0,0,127,40.5a22.17,22.17,0,0,0-2.58-4" style="fill:none;stroke:#fff;stroke-miterlimit:10"/><line x1="91.26" y1="5.75" x2="84.76" y2="2.01" style="fill:none;stroke:#fff;stroke-miterlimit:10"/><line x1="124.13" y1="5.75" x2="130.63" y2="2.01" style="fill:none;stroke:#fff;stroke-miterlimit:10"/><rect x="84.06" y="1.37" width="47.25" height="47.25" rx="2.52" style="fill:none;stroke:#fff;stroke-miterlimit:10"/><path d="M85.23,48.35a42.22,42.22,0,0,1,3.11-7.85,22.49,22.49,0,0,1,2.59-4" style="fill:none;stroke:#fff;stroke-miterlimit:10"/><path d="M126.35,21.35s0,5.23,0,5.58c0,2.53-.39,8-2.36,10.18s-6.82,2.44-11.33,2.44h-9.92c-4.5,0-9.48-.42-11.33-2.44S89.09,29.46,89,26.93c0-.35,0-5.58,0-5.58s0-5.24,0-5.59c0-2.52.39-8,2.36-10.17s6.83-2.45,11.33-2.45h9.92c4.51,0,9.48.42,11.33,2.45s2.31,7.65,2.36,10.17C126.35,16.11,126.35,21.35,126.35,21.35Z" style="fill:none;stroke:#fff;stroke-miterlimit:10"/><path d="M105.57,26.33a3.31,3.31,0,0,1-2.36-3.28c0-2.12,1.7-3.72,4.26-3.72,3.44,0,4.66,2,4.66,3.8a3.36,3.36,0,0,1-.82,2.18,3.89,3.89,0,0,1-1.52,1v.08a3.89,3.89,0,0,1,2.7,4c0,2.36-1.62,4.26-5,4.26a5.18,5.18,0,0,1-3.2-1.1,4.29,4.29,0,0,1-1.36-3.12,4,4,0,0,1,.72-2.68,4.12,4.12,0,0,1,2-1.36ZM110.49,30a2.81,2.81,0,0,0-2.84-2.92,2.66,2.66,0,0,0-2.26,1.16,3.83,3.83,0,0,0-.48,2,2.73,2.73,0,0,0,2.78,2.84A2.76,2.76,0,0,0,110.49,30Zm-.32-6.72a2.52,2.52,0,0,0-2.54-2.44,2.48,2.48,0,0,0-2.5,2.44,2.52,2.52,0,0,0,5,0Z" style="fill:#fff"/><path d="M106.72,11.08a7.59,7.59,0,0,1,1.09-4,.46.46,0,0,1,.42-.28h.21a.18.18,0,0,1,.16.28,7.85,7.85,0,0,0-1.12,4,7.69,7.69,0,0,0,1.12,4,.18.18,0,0,1-.16.27h-.21a.48.48,0,0,1-.42-.27A7.59,7.59,0,0,1,106.72,11.08Z" style="fill:#fff"/><path d="M100.47,44.59l-2.14-2c-.07-.07,0-.14.24-.14h.52a.6.6,0,0,1,.44.14L101,44.08h0l1.59-1.46a.63.63,0,0,1,.46-.14h.47c.19,0,.31.07.23.14l-2.2,2v1.33c0,.09-.16.15-.38.15h-.35c-.22,0-.39-.06-.39-.15Z" style="fill:#fff"/><path d="M106,42.63c0-.08.17-.15.38-.15H110c.22,0,.39.07.39.15v.11c0,.08-.17.15-.39.15h-2.91V44h2.06c.22,0,.39.07.39.15v.1c0,.08-.17.15-.39.15h-2.06v1.26h3.11c.22,0,.39.06.39.15v.1c0,.09-.17.15-.39.15h-3.84c-.21,0-.38-.06-.38-.15Z" style="fill:#fff"/><path d="M112.88,42.63c0-.08.17-.15.39-.15h.33c.22,0,.39.07.39.15v3h2.81c.22,0,.39.06.39.15v.1c0,.09-.17.15-.39.15h-3.53c-.22,0-.39-.06-.39-.15Z" style="fill:#fff"/></svg>