<svg xmlns="http://www.w3.org/2000/svg" viewBox="0 0 70 70"><polygon points="30.97 13.02 32.59 12.41 55.35 18.72 56.66 20.91 56.66 24.42 42.28 57.92 40.88 59.06 14.74 47.13 14.31 45.38 14.48 43.71 20.71 31.7 13.96 23.54 13.96 20.91 18.78 15.91 21.23 16 21.95 16.77 25.88 21 30.97 13.02" style="fill:none;stroke:#fff;stroke-linejoin:round"/><path d="M29.9,35.73,19.56,23.9,14,23.54,22.72,34s-2.31,9.51,4.48,11.49c8.15,2.36,12.46-2.92,14.2-6.41,2.38-4.74-1-10.35-3.53-11.9-2.36-1.43-6.38-.64-6.38-.64l.35,6.58L22,22.32,22,16.77" style="fill:none;stroke:#fff;stroke-linejoin:round"/><line x1="19.56" y1="23.9" x2="22.02" y2="22.32" style="fill:none;stroke:#fff;stroke-linejoin:round"/><line x1="25.88" y1="21" x2="31.49" y2="26.52" style="fill:none;stroke:#fff;stroke-linejoin:round"/><path d="M35.85,17.17a2.37,2.37,0,0,1,2.54-1.52l6.42,1.58a2.41,2.41,0,0,1,1.17.88,2.56,2.56,0,0,1,.41,2,2.68,2.68,0,0,1-1.64,2.23,4.29,4.29,0,0,1-1.27.16s-5.72-1.82-7.33-2.27C35.23,20,35.38,18.21,35.85,17.17Z" style="fill:none;stroke:#fff;stroke-linejoin:round"/><polyline points="27.05 19.18 50.53 26.95 55.35 18.72" style="fill:none;stroke:#fff;stroke-linejoin:round"/><polyline points="50.53 26.95 38.93 54.36 38.93 58.17" style="fill:none;stroke:#fff;stroke-linejoin:round"/><line x1="14.48" y1="43.71" x2="38.93" y2="54.36" style="fill:none;stroke:#fff;stroke-linejoin:round"/></svg>