<svg xmlns="http://www.w3.org/2000/svg" viewBox="0 0 110 70"><path d="M11.22,31.53h3.62l2.77,6.26,2.79-6.26H24l-4.26,8.68H15.51Z" style="fill:#fff"/><path d="M25.87,27.81h3.19v2.33H25.87Zm0,3.72h3.19v8.68H25.87Z" style="fill:#fff"/><path d="M40.16,34.86c-.07-1-.61-1.17-2.79-1.17s-2.73.39-2.73,2.17c0,1.06.24,1.64.8,1.93A4.89,4.89,0,0,0,37.5,38c2.1,0,2.64-.25,2.73-1.21h3.28c0,2.79-1.3,3.57-5.88,3.57-2.73,0-4.12-.25-5-.9s-1.24-1.74-1.24-3.56c0-2,.44-3.24,1.41-3.87.8-.52,2.23-.74,4.64-.74,4.67,0,5.9.72,5.93,3.53Z" style="fill:#fff"/><path d="M45.87,27.81h3.2v2.33h-3.2Zm0,3.72h3.2v8.68h-3.2Z" style="fill:#fff"/><path d="M51.8,27.81H55v2.33H51.8Zm0,3.72H55v8.68H51.8Z" style="fill:#fff"/><path d="M67.25,31.57A2.84,2.84,0,0,1,69.42,33a6.39,6.39,0,0,1,.32,2.62c0,2.69-.23,3.44-1.25,4a4.5,4.5,0,0,1-2.25.61c-.74.06-2,.12-2.88.12-2.88,0-4.16-.23-5-.86s-1-1.34-1-3.74.33-3.4,1.51-3.94a12.44,12.44,0,0,1,4.64-.55A25.16,25.16,0,0,1,67.25,31.57Zm-6.67,4.27c0,2,.33,2.21,3,2.21s2.92-.24,2.92-2.13-.29-2.23-3-2.23C61,33.69,60.58,34,60.58,35.84Z" style="fill:#fff"/><path d="M83.89,40.21H80.76v-2c-.42,1.69-1.37,2.22-4,2.22-2,0-3.12-.36-3.87-1.23a4.33,4.33,0,0,1-.8-3V31.53h3.2V36c0,1.56.5,1.91,2.68,1.91s2.71-.55,2.71-2.47V31.53h3.2Z" style="fill:#fff"/><path d="M89.58,37.53c0,.77.52.91,2.92.91,1.89,0,2.5-.2,2.5-.79,0-.43-.27-.65-.92-.69a16,16,0,0,0-1.66,0h-1.6c-3.47,0-4.53-.61-4.53-2.66a2.37,2.37,0,0,1,1.63-2.58,17.79,17.79,0,0,1,4.3-.35c2.73,0,3.83.13,4.61.55s.94.93,1,2.05H94.47c-.08-.5-.49-.61-2.23-.61-2,0-2.64.18-2.64.72s.39.65,2.1.65H94c3.4,0,4.33.6,4.33,2.73A2.35,2.35,0,0,1,96.55,40a18.81,18.81,0,0,1-4.76.38c-2.7,0-3.59-.12-4.4-.54a2.37,2.37,0,0,1-1.19-2.35Z" style="fill:#fff"/></svg>