<svg xmlns="http://www.w3.org/2000/svg" viewBox="0 0 132 194"><polygon points="81.04 6.26 65.34 3.65 81.04 0.72 81.04 6.26"/><polyline points="97.86 69.11 101.36 3.55 74.85 3.55" style="fill:none;stroke:#000;stroke-miterlimit:10"/><path d="M22.16,131.53c-6.81-6.19-5.41-11.48-1.86-17.16a17.54,17.54,0,0,0,2.85-12.07,8.15,8.15,0,0,0-1.29-4.1c-7.72-9.16-6.71-15.87-.05-25.15A58.73,58.73,0,0,1,28,66.33C33.45,60.86,40,60.68,46.3,63.84c5.29,2.63,10,2.17,15-.11,5.21-2.37,10-2.79,14.59,1.85,3.14,3.18,7.77,2.92,11,.61,7.56-5.38,20.43-1.15,25.92,6.25,1.05,1.41,1,3.65,1.42,5.5,1.71,7,1.19,13.81-2.59,20.09-1.86,3.08-1.66,5.64.64,8.47,4,4.89,3.21,10.7,2,16.24-.59,2.84-2.32,5.47-3.73,8.08-2.21,4.1-1.92,7,1.62,10.19,3.39,3.05,5.1,13.94.51,17.6-2.69,2.15-4.87,4.93-7.4,7.3-4,3.71-8.77,2.71-13.39,2-3.36-.5-6.63-1.86-10-2.13-2.4-.2-4.88.91-7.35,1.19a28.54,28.54,0,0,1-7.48.28,20.29,20.29,0,0,1-7.22-2.54c-3.46-2.08-6.73-1.39-10.12-.29a41.22,41.22,0,0,0-6,2.15c-6.67,3.37-12.72,1.14-18.57-2-3.68-2-5.62-10.49-4.12-15.14,1.21-3.77,2-7.7,3.16-12.44Zm90.75-45.79-.76-.29a15.62,15.62,0,0,0,0-3.21C111.23,78,111.65,73,107,70.45c-6.19-3.32-12.4-5.29-19.44-1.58-4.55,2.4-9.37,2.81-13.88-1.33-2.47-2.28-5.86-3.43-9.51-1.71-6.86,3.24-13.65,4-20.87.43-5.33-2.63-10.18-.89-14.62,3.14a30.17,30.17,0,0,0-6.92,8.75c-2.63,5.12-3.3,9.66.19,14.66,3.65,5.24,5.78,11,3,17.42-1.18,2.73-2.09,5.59-3.46,8.21-1.67,3.19-1.19,5.83.92,8.59a21.37,21.37,0,0,1,3.58,6.25c1.31,4.23.14,8.32-1.5,12.35-1.75,4.34-2.63,9.08-.06,13.19,4.16,6.65,12.23,8.63,19.35,5.41,1.26-.58,2.56-1.09,3.84-1.61,5.13-2.11,10.22-3.07,15.26.33a15.87,15.87,0,0,0,3.74,1.78c2.87,1,5.52,1.43,8.47-.56,1.75-1.17,4.52-1.31,6.77-1.12a60.6,60.6,0,0,1,9,2c7.48,1.82,13.86,1.43,18.7-6.05,3.75-5.8,4.25-10.42.23-16.25-1.36-2-2.59-4.64-2.47-6.92a26,26,0,0,1,2.69-9.1c3-6.56,3.26-12.79-.44-19.22-2.07-3.59-1.56-7.53-.08-11.38C110.73,92.71,111.76,89.2,112.91,85.74Z"/><path d="M107.26,135.81a26,26,0,0,1,2.69-9.1c3-6.56,3.26-12.79-.44-19.22-2.07-3.59-1.56-7.53-.08-11.38,1.3-3.4,2.33-6.91,3.48-10.37l-.76-.29a15.62,15.62,0,0,0,0-3.21C111.23,78,111.65,73,107,70.45c-6.19-3.32-12.4-5.29-19.44-1.58-4.55,2.4-9.37,2.81-13.88-1.33-2.47-2.28-5.86-3.43-9.51-1.71-6.86,3.24-13.65,4-20.87.43-5.33-2.63-10.18-.89-14.62,3.14a30.17,30.17,0,0,0-6.92,8.75c-2.63,5.12-3.3,9.66.19,14.66,3.65,5.24,5.78,11,3,17.42-1.18,2.73-2.09,5.59-3.46,8.21-1.67,3.19-1.19,5.83.92,8.59a21.37,21.37,0,0,1,3.58,6.25c1.31,4.23.14,8.32-1.5,12.35-1.75,4.34-2.63,9.08-.06,13.19,4.16,6.65,12.23,8.63,19.35,5.41,1.26-.58,2.56-1.09,3.84-1.61,5.13-2.11,10.22-3.07,15.26.33a15.87,15.87,0,0,0,3.74,1.78c2.87,1,5.52,1.43,8.47-.56,1.75-1.17,4.52-1.31,6.77-1.12a60.6,60.6,0,0,1,9,2c7.48,1.82,13.86,1.43,18.7-6.05,3.75-5.8,4.25-10.42.23-16.25C108.37,140.75,107.14,138.09,107.26,135.81Z" style="fill:#fff"/><path d="M97.37,166.69a28.48,28.48,0,0,1-6.74-.93c-.79-.19-1.58-.4-2.36-.61a39.39,39.39,0,0,0-6.56-1.35q-.79-.06-1.56-.06a8.66,8.66,0,0,0-4.72,1.06,8.34,8.34,0,0,1-4.76,1.52,13.74,13.74,0,0,1-4.37-.87,16.72,16.72,0,0,1-3.93-1.88,11.71,11.71,0,0,0-6.74-2.11,20.65,20.65,0,0,0-7.8,1.85l-1,.39c-.94.39-1.92.78-2.86,1.21a17.29,17.29,0,0,1-7.17,1.58,15.21,15.21,0,0,1-13.13-7.27c-2.29-3.67-2.29-8.21,0-13.87,1.52-3.73,2.74-7.75,1.48-11.84a20.42,20.42,0,0,0-3.46-6c-2.39-3.13-2.71-6.12-1-9.4A51.48,51.48,0,0,0,22.93,113c.39-1,.81-2.07,1.25-3.1,2.32-5.33,1.43-10.48-2.9-16.69C18,88.51,17.91,83.89,21,77.81a30.71,30.71,0,0,1,7.09-9c3.4-3.08,6.69-4.58,10.06-4.58a12.22,12.22,0,0,1,5.4,1.33,20.69,20.69,0,0,0,9.33,2.27A25.29,25.29,0,0,0,63.8,65.14a9.05,9.05,0,0,1,3.85-.89A9.56,9.56,0,0,1,74.14,67a10,10,0,0,0,6.92,2.94,13.25,13.25,0,0,0,6.1-1.71,17.05,17.05,0,0,1,8.11-2.1c4.59,0,8.84,2,12,3.67,4.08,2.18,4.61,6,5.12,9.67.12.88.25,1.79.42,2.64a8.66,8.66,0,0,1,.08,2.38c0,.15,0,.31,0,.46l1,.36-.23.69c-.35,1.06-.69,2.12-1,3.18-.76,2.38-1.55,4.84-2.46,7.22-1.68,4.37-1.67,7.78,0,10.73,3.61,6.27,3.77,12.79.48,19.92a25.18,25.18,0,0,0-2.62,8.82,11.42,11.42,0,0,0,2.33,6.45c4,5.76,3.91,10.71-.22,17.09-3.22,5-7.27,7.3-12.76,7.3Z" style="fill:#fff"/><path d="M41.85,74.1a.44.44,0,0,1,.45-.45h1.15c.27,0,.35.18.41.44l1.9,7.6h0l1.94-7.6c.06-.26.15-.44.42-.44h1.14a.45.45,0,0,1,.45.45V84a.44.44,0,0,1-.45.45H49a.44.44,0,0,1-.45-.45V75.59h0L46.39,84c-.06.25-.13.43-.4.43H45.6c-.27,0-.36-.18-.42-.43l-2.13-8.4h0V84a.44.44,0,0,1-.45.45H42.3a.44.44,0,0,1-.45-.45Z"/><path d="M53.79,74.09a.56.56,0,0,1,.55-.44h.92a.56.56,0,0,1,.55.44L58.18,84a.35.35,0,0,1-.35.43h-.54c-.26,0-.37-.18-.43-.43l-.6-2.63H53.32L52.74,84c-.06.25-.14.43-.41.43h-.54a.35.35,0,0,1-.34-.43ZM56,80.16l-1.18-5.31h0l-1.19,5.31Z"/><path d="M60.7,74.87H58.8a.44.44,0,0,1-.45-.45V74.1a.44.44,0,0,1,.45-.45h5.08a.45.45,0,0,1,.45.45v.32a.45.45,0,0,1-.45.45H62V84a.44.44,0,0,1-.45.45h-.39A.44.44,0,0,1,60.7,84Z"/><path d="M65,79c0-3.33,1-5.47,3.29-5.47,1.68,0,2.56,1,2.91,3a.41.41,0,0,1-.36.48l-.42,0c-.24,0-.38-.17-.44-.41-.3-1.27-.84-1.86-1.69-1.86-1.31,0-2,1.4-2,4.26,0,3.06.58,4.37,2,4.37,1,0,1.53-.69,1.8-2.11,0-.23.15-.43.39-.4l.48.05a.41.41,0,0,1,.36.48c-.37,2.12-1.35,3.17-3,3.17C65.88,84.55,65,82.54,65,79Z"/><path d="M73.17,74.1a.44.44,0,0,1,.45-.45H74a.44.44,0,0,1,.45.45v4.1H78V74.1a.45.45,0,0,1,.45-.45h.39a.45.45,0,0,1,.45.45V84a.44.44,0,0,1-.45.45h-.39A.44.44,0,0,1,78,84V79.41H74.47V84a.44.44,0,0,1-.45.45h-.4a.44.44,0,0,1-.45-.45Z"/><path d="M81.69,74.1a.44.44,0,0,1,.45-.45h4.23a.45.45,0,0,1,.45.45v.32a.45.45,0,0,1-.45.45H83v3.37h2.4a.45.45,0,0,1,.45.45V79a.45.45,0,0,1-.45.45H83v3.78h3.61a.44.44,0,0,1,.45.45V84a.44.44,0,0,1-.45.45H82.14a.44.44,0,0,1-.45-.45Z"/><path d="M88.42,81.63l.41-.07a.42.42,0,0,1,.48.37c.27,1,.73,1.45,1.69,1.45a1.45,1.45,0,0,0,1.62-1.55c0-2.63-4.39-2.29-4.39-5.69a2.44,2.44,0,0,1,2.65-2.62,2.57,2.57,0,0,1,2.72,2.26.44.44,0,0,1-.35.51l-.3.06a.47.47,0,0,1-.53-.36c-.26-.85-.71-1.3-1.54-1.3a1.29,1.29,0,0,0-1.45,1.38c0,2.44,4.45,2.14,4.45,5.65a2.92,2.92,0,0,1-5.79.42A.43.43,0,0,1,88.42,81.63Z"/><path d="M37.74,92.09a.36.36,0,0,1,.36-.44h.49a.45.45,0,0,1,.45.44l1.4,7.69h0l1.33-7.69c.05-.26.2-.44.45-.44h.59c.25,0,.4.18.45.44l1.33,7.69h0l1.4-7.69a.47.47,0,0,1,.46-.44H47a.37.37,0,0,1,.36.44l-2,9.9a.56.56,0,0,1-.54.43h-.49a.48.48,0,0,1-.47-.43l-1.33-7.7h0L41.2,102a.45.45,0,0,1-.45.43h-.52a.56.56,0,0,1-.54-.43Z"/><path d="M48.93,92.1a.44.44,0,0,1,.45-.45h.4a.44.44,0,0,1,.45.45v4.1H53.8V92.1a.45.45,0,0,1,.45-.45h.39a.44.44,0,0,1,.45.45V102a.44.44,0,0,1-.45.45h-.39a.44.44,0,0,1-.45-.45V97.41H50.23V102a.44.44,0,0,1-.45.45h-.4a.44.44,0,0,1-.45-.45Z"/><path d="M57.45,92.1a.44.44,0,0,1,.45-.45h4.23a.45.45,0,0,1,.45.45v.32a.45.45,0,0,1-.45.45H58.74v3.37h2.4a.45.45,0,0,1,.45.45V97a.45.45,0,0,1-.45.45h-2.4v3.78h3.61a.44.44,0,0,1,.45.45V102a.44.44,0,0,1-.45.45H57.9a.44.44,0,0,1-.45-.45Z"/><path d="M64.41,92.1a.44.44,0,0,1,.45-.45h2c2.31,0,3.36.9,3.36,2.87a2.65,2.65,0,0,1-1.7,2.71L70.41,102a.3.3,0,0,1-.29.42h-.61A.53.53,0,0,1,69,102l-1.65-4.32H65.7V102a.44.44,0,0,1-.45.45h-.39a.44.44,0,0,1-.45-.45ZM67,96.51a1.69,1.69,0,0,0,1.92-1.87c0-1.56-.9-1.8-2-1.8H65.7v3.67Z"/><path d="M72.33,92.1a.44.44,0,0,1,.45-.45H77a.45.45,0,0,1,.45.45v.32a.45.45,0,0,1-.45.45H73.62v3.37H76a.45.45,0,0,1,.45.45V97a.45.45,0,0,1-.45.45h-2.4v3.78h3.61a.44.44,0,0,1,.45.45V102a.44.44,0,0,1-.45.45H72.78a.44.44,0,0,1-.45-.45Z"/><path d="M81.88,97c0-3.63,1.1-5.5,3.37-5.5s3.39,1.87,3.39,5.5-1.14,5.53-3.39,5.53S81.88,100.63,81.88,97Zm5.45,0c0-3-.74-4.32-2.08-4.32S83.19,94.05,83.19,97s.76,4.36,2.06,4.36S87.33,100,87.33,97Z"/><path d="M90.52,92.1a.45.45,0,0,1,.45-.45h1a.57.57,0,0,1,.53.41l3,7h0v-7a.45.45,0,0,1,.45-.45h.3a.44.44,0,0,1,.45.45V102a.44.44,0,0,1-.45.45h-.42a.58.58,0,0,1-.53-.4l-3.59-8.16h0V102a.44.44,0,0,1-.45.45H91a.44.44,0,0,1-.45-.45Z"/><path d="M54.85,116l-2.49-5.91a.3.3,0,0,1,.29-.41h.6c.27,0,.4.17.51.41l1.72,4.38h0l1.85-4.38a.57.57,0,0,1,.54-.41h.54a.29.29,0,0,1,.27.41L56.16,116v4a.44.44,0,0,1-.45.45H55.3a.44.44,0,0,1-.45-.45Z"/><path d="M59.47,115c0-3.63,1.1-5.5,3.38-5.5s3.39,1.87,3.39,5.5-1.14,5.53-3.39,5.53S59.47,118.63,59.47,115Zm5.45,0c0-3-.74-4.32-2.07-4.32s-2.07,1.35-2.07,4.32.76,4.36,2.07,4.36S64.92,118,64.92,115Z"/><path d="M68.05,110.1a.45.45,0,0,1,.45-.45h.41a.45.45,0,0,1,.45.45v7.22c0,1.47.54,2.05,1.74,2.05s1.83-.58,1.83-2.05V110.1a.44.44,0,0,1,.45-.45h.39a.45.45,0,0,1,.45.45v7c0,2.24-1,3.42-3.12,3.42s-3-1.18-3-3.42Z"/><path d="M76.51,110.1a.45.45,0,0,1,.45-.45h2c2.31,0,3.36.9,3.36,2.87a2.66,2.66,0,0,1-1.69,2.71L82.51,120a.3.3,0,0,1-.28.42h-.62a.53.53,0,0,1-.51-.42l-1.65-4.32H77.8V120a.44.44,0,0,1-.45.45H77a.44.44,0,0,1-.45-.45Zm2.61,4.41A1.69,1.69,0,0,0,81,112.64c0-1.56-.9-1.8-2-1.8H77.8v3.67Z"/><path d="M37.93,128.1a.45.45,0,0,1,.45-.45h.36a.44.44,0,0,1,.45.45v4.69h0L42.33,128a.67.67,0,0,1,.58-.38h.6a.24.24,0,0,1,.21.38l-2.31,3.57L44.13,138a.3.3,0,0,1-.29.4h-.61a.58.58,0,0,1-.53-.4L40.54,133l-1.35,1.95V138a.44.44,0,0,1-.45.45h-.36a.44.44,0,0,1-.45-.45Z"/><path d="M45.57,128.1a.44.44,0,0,1,.45-.45h4.23a.45.45,0,0,1,.45.45v.32a.45.45,0,0,1-.45.45H46.86v3.37h2.4a.45.45,0,0,1,.45.45V133a.45.45,0,0,1-.45.45h-2.4v3.78h3.61a.44.44,0,0,1,.45.45V138a.44.44,0,0,1-.45.45H46a.44.44,0,0,1-.45-.45Z"/><path d="M54.27,134l-2.49-5.91a.3.3,0,0,1,.28-.41h.6c.27,0,.41.17.51.41l1.73,4.38h0l1.84-4.38a.57.57,0,0,1,.54-.41h.54a.28.28,0,0,1,.27.41L55.57,134v4a.44.44,0,0,1-.45.45h-.4a.44.44,0,0,1-.45-.45Z"/><path d="M59.65,128.1a.45.45,0,0,1,.45-.45H62c2.34,0,3.46.78,3.46,2.75a2.32,2.32,0,0,1-1.42,2.31v0a2.49,2.49,0,0,1,1.69,2.65c0,2.36-1.48,3-3.57,3H60.1a.44.44,0,0,1-.45-.45ZM62,132.26c1.11,0,2.16-.39,2.16-1.79s-1.08-1.62-2.15-1.62H60.93v3.41Zm.22,5c1.5,0,2.19-.49,2.19-1.87s-.69-2-2.19-2H60.93v3.84Z"/><path d="M67.14,133c0-3.63,1.09-5.5,3.37-5.5s3.39,1.87,3.39,5.5-1.14,5.53-3.39,5.53S67.14,136.63,67.14,133Zm5.44,0c0-3-.73-4.32-2.07-4.32s-2.07,1.35-2.07,4.32.77,4.36,2.07,4.36S72.58,136,72.58,133Z"/><path d="M77.34,128.09a.56.56,0,0,1,.55-.44h.92a.56.56,0,0,1,.55.44l2.37,9.9a.35.35,0,0,1-.34.43h-.54c-.27,0-.38-.18-.44-.43l-.6-2.63H76.87L76.29,138c-.06.25-.14.43-.41.43h-.54A.35.35,0,0,1,75,138Zm2.2,6.07-1.18-5.31h0l-1.19,5.31Z"/><path d="M83.43,128.1a.44.44,0,0,1,.45-.45h2c2.31,0,3.36.9,3.36,2.87a2.65,2.65,0,0,1-1.7,2.71L89.43,138a.3.3,0,0,1-.29.42h-.61A.53.53,0,0,1,88,138l-1.65-4.32H84.72V138a.44.44,0,0,1-.45.45h-.39a.44.44,0,0,1-.45-.45ZM86,132.51A1.69,1.69,0,0,0,88,130.64c0-1.56-.9-1.8-2-1.8h-1.2v3.67Z"/><path d="M91.35,128.1a.44.44,0,0,1,.45-.45h1.6c3.06,0,4.32,1.56,4.32,5.28s-1.27,5.49-4.35,5.49H91.8a.44.44,0,0,1-.45-.45Zm2.13,9.07c2,0,2.94-1.28,2.94-4.22s-.89-4-2.87-4h-.9v8.27Z"/><path d="M38.91,152l-2.49-5.91a.3.3,0,0,1,.28-.41h.6c.27,0,.41.17.51.41l1.73,4.38h0l1.84-4.38a.57.57,0,0,1,.54-.41h.54a.29.29,0,0,1,.27.41L40.21,152v4a.44.44,0,0,1-.45.45h-.4a.44.44,0,0,1-.45-.45Z"/><path d="M43.53,151c0-3.63,1.09-5.5,3.37-5.5s3.39,1.87,3.39,5.5-1.14,5.53-3.39,5.53S43.53,154.63,43.53,151ZM49,151c0-3-.73-4.32-2.07-4.32s-2.07,1.35-2.07,4.32.77,4.36,2.07,4.36S49,154,49,151Z"/><path d="M52.11,146.1a.44.44,0,0,1,.45-.45H53a.44.44,0,0,1,.45.45v7.22c0,1.47.54,2.05,1.74,2.05s1.83-.58,1.83-2.05V146.1a.44.44,0,0,1,.45-.45h.39a.44.44,0,0,1,.45.45v7c0,2.24-1,3.42-3.12,3.42s-3-1.18-3-3.42Z"/><path d="M65.2,146.87H63.3a.44.44,0,0,1-.45-.45v-.32a.44.44,0,0,1,.45-.45h5.08a.45.45,0,0,1,.45.45v.32a.45.45,0,0,1-.45.45H66.49V156a.44.44,0,0,1-.45.45h-.39a.44.44,0,0,1-.45-.45Z"/><path d="M72.15,152l-2.49-5.91a.29.29,0,0,1,.28-.41h.6c.27,0,.41.17.51.41l1.73,4.38h0l1.85-4.38a.57.57,0,0,1,.54-.41h.54a.28.28,0,0,1,.27.41L73.45,152v4a.44.44,0,0,1-.45.45h-.41a.43.43,0,0,1-.44-.45Z"/><path d="M77.53,146.1a.45.45,0,0,1,.45-.45h2c2.3,0,3.45,1,3.45,3.06s-1.22,3.14-3.45,3.14H78.82V156a.44.44,0,0,1-.45.45H78a.44.44,0,0,1-.45-.45Zm2.52,4.56a1.81,1.81,0,0,0,2.07-1.95c0-1.32-.69-1.84-2-1.84H78.82v3.79Z"/><path d="M85.15,146.1a.45.45,0,0,1,.45-.45h4.23a.45.45,0,0,1,.45.45v.32a.45.45,0,0,1-.45.45H86.44v3.37h2.4a.45.45,0,0,1,.45.45V151a.45.45,0,0,1-.45.45h-2.4v3.78h3.61a.44.44,0,0,1,.45.45V156a.44.44,0,0,1-.45.45H85.6a.44.44,0,0,1-.45-.45Z"/><path d="M92.11,146.1a.45.45,0,0,1,.45-.45h1.61c3,0,4.32,1.56,4.32,5.28s-1.28,5.49-4.36,5.49H92.56a.44.44,0,0,1-.45-.45Zm2.13,9.07c2,0,2.94-1.28,2.94-4.22s-.89-4-2.86-4h-.9v8.27Z"/></svg>