<svg xmlns="http://www.w3.org/2000/svg" viewBox="0 0 187.64 42.66"><path d="M111.42,31a.36.36,0,0,1-.39.35.67.67,0,0,1-.43-.19,1.46,1.46,0,0,0-1-.36c-.55,0-.94.27-.94.66s.32.59,1.17.89c1.22.44,1.71.89,1.71,1.6a1.76,1.76,0,0,1-2,1.62c-1,0-2-.51-2-1a.38.38,0,0,1,.37-.39.9.9,0,0,1,.46.23,2,2,0,0,0,1.22.44c.6,0,1-.33,1-.74s-.34-.65-1.25-1c-1.17-.46-1.62-.88-1.62-1.51a1.65,1.65,0,0,1,1.82-1.52C110.52,30.07,111.42,30.55,111.42,31Z" style="fill:#222"/><path d="M114.36,30.79a1.9,1.9,0,0,1,3.38,1.33v3a.45.45,0,1,1-.89,0v-3a1.26,1.26,0,1,0-2.51,0v3a.43.43,0,0,1-.44.48.44.44,0,0,1-.45-.48v-7a.44.44,0,0,1,.45-.48.43.43,0,0,1,.44.48v2.59Z" style="fill:#222"/><path d="M121,28.79a.55.55,0,1,1-.56-.56A.54.54,0,0,1,121,28.79Zm-.11,6.34a.44.44,0,0,1-.45.48.43.43,0,0,1-.44-.48V30.55a.43.43,0,0,1,.44-.48.43.43,0,0,1,.45.48Z" style="fill:#222"/><path d="M124.26,35.13a.43.43,0,0,1-.44.48.44.44,0,0,1-.45-.48V30.91H123c-.28,0-.44-.15-.44-.39s.16-.39.44-.39h.37V28.86a1.11,1.11,0,0,1,1.19-1.17h.27c.29,0,.51.17.51.4s-.18.37-.49.37h-.22c-.26,0-.37.11-.37.36v1.31h.56c.29,0,.45.15.45.39s-.16.39-.45.39h-.56Z" style="fill:#222"/><path d="M127.44,29a.45.45,0,1,1,.9,0v1.17h.36c.29,0,.45.15.45.39s-.16.39-.45.39h-.36v4.22a.45.45,0,1,1-.9,0V30.91h-.37c-.28,0-.44-.15-.44-.39s.16-.39.44-.39h.37Z" style="fill:#222"/><rect x="49.01" y="-48.01" width="41.66" height="138.68" rx="5.5" transform="translate(91.17 -48.51) rotate(90)" style="fill:none;stroke:#222;stroke-miterlimit:10"/><path d="M163.61,28.54A3.72,3.72,0,0,1,162,25.35a4.11,4.11,0,0,1,1.26-3.07,4.37,4.37,0,0,1,3.16-1.23,4.26,4.26,0,0,1,3.12,1.23,4.09,4.09,0,0,1,1.25,3.08,3.79,3.79,0,0,1-1.65,3.17A3.52,3.52,0,0,1,170.52,30a4.2,4.2,0,0,1,.53,2.1,4.42,4.42,0,0,1-1.31,3.29,4.6,4.6,0,0,1-3.35,1.28,4.81,4.81,0,0,1-3.45-1.29,4.28,4.28,0,0,1-1.37-3.25A3.63,3.63,0,0,1,163.61,28.54Zm.2,3.48a2.5,2.5,0,0,0,.72,1.79,2.51,2.51,0,0,0,3.55,0,2.51,2.51,0,0,0-3.54-3.55A2.38,2.38,0,0,0,163.81,32Zm.28-6.68a2.2,2.2,0,0,0,.66,1.62,2.26,2.26,0,0,0,3.19,0,2.26,2.26,0,0,0,0-3.19,2.25,2.25,0,0,0-3.18,0A2.14,2.14,0,0,0,164.09,25.34Z" style="fill:#222"/><path d="M165.52,14.18l.16-3.31-2.77,1.84-.82-1.44L165,9.79,162.09,8.3l.82-1.45,2.77,1.88-.18-3.35h1.63l-.19,3.33,2.77-1.86.82,1.44-2.92,1.5,2.92,1.48-.82,1.44-2.77-1.84.18,3.31Z" style="fill:#222"/><rect x="145.48" y="0.5" width="41.66" height="41.66" rx="5.5" transform="translate(187.64 -144.98) rotate(90)" style="fill:none;stroke:#222;stroke-miterlimit:10"/></svg>