<svg xmlns="http://www.w3.org/2000/svg" viewBox="0 0 70 70"><path d="M55.77,22.5H14a.56.56,0,0,0-.56.55V40.82a.56.56,0,0,0,.56.55H55.77a.57.57,0,0,0,.57-.55V23.05A.57.57,0,0,0,55.77,22.5Z" style="fill:none;stroke:#fff;stroke-linecap:round"/><rect x="9.27" y="18.55" width="51.45" height="32.89" rx="2.03" style="fill:none;stroke:#fff;stroke-linecap:round"/><path d="M42.24,33.34a3.29,3.29,0,1,0,3.29-3.29A3.29,3.29,0,0,0,42.24,33.34Z" style="fill:none;stroke:#fff;stroke-linecap:round;stroke-miterlimit:3.24636006355286"/><rect x="47.68" y="33.15" width="0.95" height="0.58" style="stroke:#fff;stroke-miterlimit:10"/><rect x="42.52" y="33.15" width="0.95" height="0.58" style="stroke:#fff;stroke-miterlimit:10"/><rect x="46.81" y="31.22" width="0.95" height="0.58" transform="translate(-7.64 46.09) rotate(-48.55)" style="stroke:#fff;stroke-miterlimit:10"/><rect x="43.39" y="35.08" width="0.95" height="0.58" transform="translate(-11.69 44.84) rotate(-48.55)" style="stroke:#fff;stroke-miterlimit:10"/><rect x="46.83" y="35.03" width="0.58" height="0.95" transform="translate(-11.88 35.46) rotate(-36.96)" style="stroke:#fff;stroke-miterlimit:10"/><rect x="43.73" y="30.91" width="0.58" height="0.95" transform="translate(-10.02 32.77) rotate(-36.96)" style="stroke:#fff;stroke-miterlimit:10"/><path d="M20.37,33.34a3.29,3.29,0,1,0,3.29-3.29A3.3,3.3,0,0,0,20.37,33.34Z" style="fill:none;stroke:#fff;stroke-linecap:round;stroke-miterlimit:3.24636006355286"/><rect x="25.81" y="33.15" width="0.95" height="0.58" style="stroke:#fff;stroke-miterlimit:10"/><rect x="20.66" y="33.15" width="0.95" height="0.58" style="stroke:#fff;stroke-miterlimit:10"/><rect x="24.94" y="31.22" width="0.95" height="0.58" transform="translate(-15.03 29.7) rotate(-48.55)" style="stroke:#fff;stroke-miterlimit:10"/><rect x="21.53" y="35.08" width="0.95" height="0.58" transform="translate(-19.08 28.45) rotate(-48.55)" style="stroke:#fff;stroke-miterlimit:10"/><rect x="24.96" y="35.03" width="0.58" height="0.95" transform="translate(-16.27 22.32) rotate(-36.96)" style="stroke:#fff;stroke-miterlimit:10"/><rect x="21.86" y="30.91" width="0.58" height="0.95" transform="translate(-14.42 19.62) rotate(-36.96)" style="stroke:#fff;stroke-miterlimit:10"/><path d="M52.46,51.45s0,0-2-7.75c-7.74,0-23.35-.06-31.19-.06-2.23,7.77-2.17,7.81-2.17,7.81Z" style="fill:none;stroke:#fff"/><path d="M45.83,49.65A1.15,1.15,0,1,0,47,48.5,1.14,1.14,0,0,0,45.83,49.65Z" style="fill:none;stroke:#fff;stroke-linecap:round"/><path d="M20.81,49.65A1.15,1.15,0,1,0,22,48.5,1.14,1.14,0,0,0,20.81,49.65Z" style="fill:none;stroke:#fff;stroke-linecap:round"/><path d="M26.39,48.73a1.15,1.15,0,1,0,1.15-1.15A1.15,1.15,0,0,0,26.39,48.73Z" style="fill:none;stroke:#fff;stroke-linecap:round"/><path d="M40.77,48.66a1.15,1.15,0,1,0,1.15-1.15A1.15,1.15,0,0,0,40.77,48.66Z" style="fill:none;stroke:#fff;stroke-linecap:round"/></svg>