<svg xmlns="http://www.w3.org/2000/svg" viewBox="0 0 70 70"><path d="M45.83,30.41l-.91.91a33.63,33.63,0,0,1,.2,3.68,32.27,32.27,0,0,1-.21,3.73l.92.92A36.5,36.5,0,0,0,46.12,35,35.44,35.44,0,0,0,45.83,30.41Z" style="fill:#fff"/><path d="M38.4,18.29c-1.9,0-3.63,1.43-5,3.82l-2,3.14.51.51.22.22.61.61c1.21-4.35,3.3-7.3,5.63-7.3,1.89,0,3.63,1.95,4.86,5l.79-.79C42.65,20.29,40.65,18.29,38.4,18.29Z" style="fill:#fff"/><path d="M31.68,35c0-.27,0-.53,0-.8l-1-1c0,.59,0,1.18,0,1.78s0,1.23.05,1.83l1-1C31.69,35.57,31.68,35.29,31.68,35Z" style="fill:#fff"/><path d="M38.4,50.71c-2.32,0-4.41-2.93-5.62-7.25l-.6.6-.23.23-.49.49,2,3.11c1.33,2.39,3.06,3.82,5,3.82,2.24,0,4.23-2,5.63-5.18l-.78-.78C42,48.78,40.28,50.71,38.4,50.71Z" style="fill:#fff"/><path d="M24.88,35c0-3,1.06-5.16,2-5.16h.44l-.92-.92c-1.48.44-2.54,2.9-2.54,6.08s1.08,5.69,2.58,6.1l.94-.94h-.5C25.94,40.16,24.88,38,24.88,35Z" style="fill:#fff"/><line x1="24.11" y1="47.79" x2="49.63" y2="22.27" style="fill:none;stroke:#fff;stroke-miterlimit:10"/><line x1="24.11" y1="22.27" x2="49.63" y2="47.79" style="fill:none;stroke:#fff;stroke-miterlimit:10"/></svg>