<svg xmlns="http://www.w3.org/2000/svg" viewBox="0 0 90 22"><rect width="90" height="22" style="fill:#222"/><circle cx="14.6" cy="8.3" r="0.79" style="fill:#fff"/><circle cx="14.6" cy="9.65" r="0.79" style="fill:#fff"/><circle cx="14.6" cy="11" r="0.79" style="fill:#fff"/><circle cx="14.6" cy="12.35" r="0.79" style="fill:#fff"/><circle cx="15.96" cy="6.95" r="0.79" style="fill:#fff"/><circle cx="17.31" cy="6.95" r="0.79" style="fill:#fff"/><circle cx="18.66" cy="6.95" r="0.79" style="fill:#fff"/><circle cx="20.01" cy="8.3" r="0.79" style="fill:#fff"/><circle cx="15.96" cy="15.05" r="0.79" style="fill:#fff"/><circle cx="18.66" cy="15.05" r="0.79" style="fill:#fff"/><circle cx="17.31" cy="15.05" r="0.79" style="fill:#fff"/><circle cx="20.01" cy="13.7" r="0.79" style="fill:#fff"/><circle cx="14.6" cy="13.7" r="0.79" style="fill:#fff"/><circle cx="6.5" cy="8.3" r="0.79" style="fill:#fff"/><circle cx="11.9" cy="9.65" r="0.79" style="fill:#fff"/><circle cx="10.55" cy="11" r="0.79" style="fill:#fff"/><circle cx="9.2" cy="12.35" r="0.79" style="fill:#fff"/><circle cx="7.85" cy="6.95" r="0.79" style="fill:#fff"/><circle cx="9.2" cy="6.95" r="0.79" style="fill:#fff"/><circle cx="10.55" cy="6.95" r="0.79" style="fill:#fff"/><circle cx="11.9" cy="8.3" r="0.79" style="fill:#fff"/><circle cx="9.2" cy="15.05" r="0.79" style="fill:#fff"/><circle cx="49.73" cy="8.3" r="0.79" style="fill:#fff"/><circle cx="48.38" cy="9.65" r="0.79" style="fill:#fff"/><circle cx="48.38" cy="11" r="0.79" style="fill:#fff"/><circle cx="48.38" cy="12.35" r="0.79" style="fill:#fff"/><circle cx="51.08" cy="6.95" r="0.79" style="fill:#fff"/><circle cx="51.08" cy="15.05" r="0.79" style="fill:#fff"/><circle cx="49.73" cy="13.7" r="0.79" style="fill:#fff"/><circle cx="57.83" cy="8.3" r="0.79" style="fill:#fff"/><circle cx="57.83" cy="9.65" r="0.79" style="fill:#fff"/><circle cx="57.83" cy="11" r="0.79" style="fill:#fff"/><circle cx="57.83" cy="12.35" r="0.79" style="fill:#fff"/><circle cx="56.48" cy="8.3" r="0.79" style="fill:#fff"/><circle cx="57.83" cy="6.95" r="0.79" style="fill:#fff"/><circle cx="56.48" cy="15.05" r="0.79" style="fill:#fff"/><circle cx="59.18" cy="15.05" r="0.79" style="fill:#fff"/><circle cx="57.83" cy="15.05" r="0.79" style="fill:#fff"/><circle cx="57.83" cy="13.7" r="0.79" style="fill:#fff"/><circle cx="65.94" cy="8.3" r="0.79" style="fill:#fff"/><circle cx="65.94" cy="9.65" r="0.79" style="fill:#fff"/><circle cx="65.94" cy="11" r="0.79" style="fill:#fff"/><circle cx="65.94" cy="12.35" r="0.79" style="fill:#fff"/><circle cx="64.59" cy="8.3" r="0.79" style="fill:#fff"/><circle cx="65.94" cy="6.95" r="0.79" style="fill:#fff"/><circle cx="64.59" cy="15.05" r="0.79" style="fill:#fff"/><circle cx="67.29" cy="15.05" r="0.79" style="fill:#fff"/><circle cx="65.94" cy="15.05" r="0.79" style="fill:#fff"/><circle cx="65.94" cy="13.7" r="0.79" style="fill:#fff"/><circle cx="71.34" cy="8.3" r="0.79" style="fill:#fff"/><circle cx="71.34" cy="9.65" r="0.79" style="fill:#fff"/><circle cx="76.75" cy="12.35" r="0.79" style="fill:#fff"/><circle cx="72.69" cy="9.65" r="0.79" style="fill:#fff"/><circle cx="74.04" cy="9.65" r="0.79" style="fill:#fff"/><circle cx="75.4" cy="9.65" r="0.79" style="fill:#fff"/><circle cx="71.34" cy="6.95" r="0.79" style="fill:#fff"/><circle cx="72.69" cy="6.95" r="0.79" style="fill:#fff"/><circle cx="74.04" cy="6.95" r="0.79" style="fill:#fff"/><circle cx="75.4" cy="6.95" r="0.79" style="fill:#fff"/><circle cx="76.75" cy="6.95" r="0.79" style="fill:#fff"/><circle cx="72.69" cy="15.05" r="0.79" style="fill:#fff"/><circle cx="75.4" cy="15.05" r="0.79" style="fill:#fff"/><circle cx="74.04" cy="15.05" r="0.79" style="fill:#fff"/><circle cx="76.75" cy="13.7" r="0.79" style="fill:#fff"/><circle cx="76.75" cy="11" r="0.79" style="fill:#fff"/><circle cx="71.34" cy="13.7" r="0.79" style="fill:#fff"/><circle cx="82.15" cy="8.3" r="0.79" style="fill:#fff"/><circle cx="83.5" cy="9.65" r="0.79" style="fill:#fff"/><circle cx="83.5" cy="11" r="0.79" style="fill:#fff"/><circle cx="83.5" cy="12.35" r="0.79" style="fill:#fff"/><circle cx="80.8" cy="6.95" r="0.79" style="fill:#fff"/><circle cx="80.8" cy="15.05" r="0.79" style="fill:#fff"/><circle cx="82.15" cy="13.7" r="0.79" style="fill:#fff"/><circle cx="40.27" cy="11" r="0.79" style="fill:#fff"/><circle cx="38.92" cy="9.65" r="0.79" style="fill:#fff"/><circle cx="41.62" cy="11" r="0.79" style="fill:#fff"/><circle cx="42.97" cy="11" r="0.79" style="fill:#fff"/><circle cx="40.27" cy="8.3" r="0.79" style="fill:#fff"/><circle cx="41.62" cy="8.3" r="0.79" style="fill:#fff"/><circle cx="42.97" cy="8.3" r="0.79" style="fill:#fff"/><circle cx="44.32" cy="8.3" r="0.79" style="fill:#fff"/><circle cx="40.27" cy="13.7" r="0.79" style="fill:#fff"/><circle cx="38.92" cy="13.7" r="0.79" style="fill:#fff"/><circle cx="41.62" cy="15.05" r="0.79" style="fill:#fff"/><circle cx="41.62" cy="12.35" r="0.79" style="fill:#fff"/><circle cx="41.62" cy="9.65" r="0.79" style="fill:#fff"/><circle cx="41.62" cy="6.95" r="0.79" style="fill:#fff"/><circle cx="42.97" cy="13.7" r="0.79" style="fill:#fff"/><circle cx="41.62" cy="13.7" r="0.79" style="fill:#fff"/><circle cx="44.32" cy="12.35" r="0.79" style="fill:#fff"/><circle cx="22.71" cy="8.3" r="0.79" style="fill:#fff"/><circle cx="22.71" cy="6.95" r="0.79" style="fill:#fff"/><circle cx="22.71" cy="15.05" r="0.79" style="fill:#fff"/><circle cx="22.71" cy="9.65" r="0.79" style="fill:#fff"/><circle cx="22.71" cy="11" r="0.79" style="fill:#fff"/><circle cx="24.06" cy="11" r="0.79" style="fill:#fff"/><circle cx="25.41" cy="11" r="0.79" style="fill:#fff"/><circle cx="26.76" cy="11" r="0.79" style="fill:#fff"/><circle cx="26.76" cy="11" r="0.79" style="fill:#fff"/><circle cx="22.71" cy="12.35" r="0.79" style="fill:#fff"/><circle cx="22.71" cy="13.7" r="0.79" style="fill:#fff"/><circle cx="28.11" cy="8.3" r="0.79" style="fill:#fff"/><circle cx="28.11" cy="6.95" r="0.79" style="fill:#fff"/><circle cx="28.11" cy="15.05" r="0.79" style="fill:#fff"/><circle cx="28.11" cy="9.65" r="0.79" style="fill:#fff"/><circle cx="28.11" cy="11" r="0.79" style="fill:#fff"/><circle cx="28.11" cy="12.35" r="0.79" style="fill:#fff"/><circle cx="28.11" cy="13.7" r="0.79" style="fill:#fff"/><circle cx="30.82" cy="8.3" r="0.79" style="fill:#fff"/><circle cx="30.82" cy="6.95" r="0.79" style="fill:#fff"/><circle cx="30.82" cy="15.05" r="0.79" style="fill:#fff"/><circle cx="30.82" cy="9.65" r="0.79" style="fill:#fff"/><circle cx="30.82" cy="11" r="0.79" style="fill:#fff"/><circle cx="32.17" cy="6.95" r="0.79" style="fill:#fff"/><circle cx="33.52" cy="6.95" r="0.79" style="fill:#fff"/><circle cx="34.87" cy="6.95" r="0.79" style="fill:#fff"/><circle cx="34.87" cy="6.95" r="0.79" style="fill:#fff"/><circle cx="30.82" cy="12.35" r="0.79" style="fill:#fff"/><circle cx="30.82" cy="13.7" r="0.79" style="fill:#fff"/><circle cx="36.22" cy="8.3" r="0.79" style="fill:#fff"/><circle cx="34.87" cy="11" r="0.79" style="fill:#fff"/><circle cx="32.17" cy="11" r="0.79" style="fill:#fff"/><circle cx="33.52" cy="11" r="0.79" style="fill:#fff"/><circle cx="36.22" cy="15.05" r="0.79" style="fill:#fff"/><circle cx="36.22" cy="9.65" r="0.79" style="fill:#fff"/><circle cx="33.52" cy="12.35" r="0.79" style="fill:#fff"/><circle cx="34.87" cy="13.7" r="0.79" style="fill:#fff"/></svg>