<svg xmlns="http://www.w3.org/2000/svg" viewBox="0 0 50 50"><path d="M47.47,48.35a42.76,42.76,0,0,0-3.12-7.85,22.17,22.17,0,0,0-2.58-4" style="fill:none;stroke:#fff;stroke-miterlimit:10"/><line x1="8.57" y1="5.75" x2="2.07" y2="2.01" style="fill:none;stroke:#fff;stroke-miterlimit:10"/><line x1="41.44" y1="5.75" x2="47.94" y2="2.01" style="fill:none;stroke:#fff;stroke-miterlimit:10"/><rect x="1.37" y="1.37" width="47.25" height="47.25" rx="2.21" style="fill:none;stroke:#fff;stroke-miterlimit:10"/><path d="M2.54,48.35A42.22,42.22,0,0,1,5.65,40.5a22.49,22.49,0,0,1,2.59-4" style="fill:none;stroke:#fff;stroke-miterlimit:10"/><path d="M43.66,21.35s0,5.23,0,5.58c0,2.53-.39,8-2.36,10.18S34.47,39.55,30,39.55H20c-4.5,0-9.48-.42-11.33-2.44s-2.3-7.65-2.36-10.18c0-.35,0-5.58,0-5.58s0-5.24,0-5.59c.06-2.52.39-8,2.36-10.17S15.54,3.14,20,3.14H30c4.51,0,9.48.42,11.33,2.45s2.31,7.65,2.36,10.17C43.66,16.11,43.66,21.35,43.66,21.35Z" style="fill:none;stroke:#fff;stroke-miterlimit:10"/><rect x="17.69" y="21.06" width="15" height="1.88" style="fill:#fff"/><line x1="21.44" y1="28.5" x2="28.94" y2="15.5" style="fill:#fff"/><rect x="17.69" y="21.06" width="15" height="1.88" transform="translate(-6.46 32.82) rotate(-60)" style="fill:#fff"/><line x1="28.94" y1="28.5" x2="21.44" y2="15.5" style="fill:#fff"/><rect x="24.25" y="14.5" width="1.88" height="15" transform="translate(-7.63 15.54) rotate(-30)" style="fill:#fff"/><rect x="14.35" y="41.38" width="9.97" height="5.04" style="fill:none;stroke:#fff;stroke-miterlimit:10;stroke-width:0.35550948645971px"/><rect x="26.47" y="41.38" width="9.97" height="5.04" style="fill:none;stroke:#fff;stroke-miterlimit:10;stroke-width:0.35550948645971px"/><rect x="26.47" y="43.65" width="9.97" height="0.5" style="fill:#fff"/><polyline points="14.35 41.38 24.32 46.42 24.32 41.38" style="fill:#fff"/></svg>