<svg xmlns="http://www.w3.org/2000/svg" viewBox="0 0 60 80"><path d="M10.62,11a2.41,2.41,0,0,1,1.82-.73,2.47,2.47,0,0,1,2.16,1,2.15,2.15,0,0,1,.4,1.1H13.77a1.66,1.66,0,0,0-.31-.64,1.2,1.2,0,0,0-1-.38,1.2,1.2,0,0,0-1,.54,2.69,2.69,0,0,0-.38,1.54,2.32,2.32,0,0,0,.4,1.49,1.27,1.27,0,0,0,1,.5,1.17,1.17,0,0,0,1-.43,1.89,1.89,0,0,0,.3-.68H15a2.71,2.71,0,0,1-.81,1.57,2.36,2.36,0,0,1-1.68.61,2.52,2.52,0,0,1-2-.82,3.27,3.27,0,0,1-.73-2.26A3.28,3.28,0,0,1,10.62,11Z" style="fill:#fff"/><path d="M20.72,15.76a2.57,2.57,0,0,1-1.94.69,2.6,2.6,0,0,1-1.94-.69,3.21,3.21,0,0,1-.9-2.45,3.13,3.13,0,0,1,.9-2.44,2.6,2.6,0,0,1,1.94-.69,2.57,2.57,0,0,1,1.94.69,3.13,3.13,0,0,1,.9,2.44A3.21,3.21,0,0,1,20.72,15.76Zm-.77-.9a2.44,2.44,0,0,0,.43-1.55A2.43,2.43,0,0,0,20,11.77a1.54,1.54,0,0,0-2.34,0,2.41,2.41,0,0,0-.44,1.54,2.44,2.44,0,0,0,.44,1.55,1.54,1.54,0,0,0,2.34,0Z" style="fill:#fff"/><path d="M22.72,10.36H24l2.35,4.13V10.36h1.16v5.92H26.28l-2.41-4.2v4.2H22.72Z" style="fill:#fff"/><path d="M33.15,10.36v1.05H31.38v4.87H30.14V11.41H28.36V10.36Z" style="fill:#fff"/><path d="M37.84,10.51a1.56,1.56,0,0,1,.56.42,2.07,2.07,0,0,1,.3.5,1.67,1.67,0,0,1,.11.62,1.69,1.69,0,0,1-.22.83,1.16,1.16,0,0,1-.7.57,1.12,1.12,0,0,1,.58.47,2,2,0,0,1,.17.93v.4a3.28,3.28,0,0,0,0,.55.5.5,0,0,0,.23.33v.15H37.54a2,2,0,0,1-.08-.31,3,3,0,0,1-.06-.51V14.9a1.1,1.1,0,0,0-.2-.75,1,1,0,0,0-.7-.19H35.29v2.32H34.08V10.36h2.83A2.63,2.63,0,0,1,37.84,10.51Zm-2.55.88V13h1.33a1.31,1.31,0,0,0,.59-.1.65.65,0,0,0,.36-.66.78.78,0,0,0-.34-.73,1.26,1.26,0,0,0-.58-.1Z" style="fill:#fff"/><path d="M44.72,15.76a2.57,2.57,0,0,1-1.94.69,2.6,2.6,0,0,1-1.94-.69,3.21,3.21,0,0,1-.9-2.45,3.13,3.13,0,0,1,.9-2.44,2.6,2.6,0,0,1,1.94-.69,2.57,2.57,0,0,1,1.94.69,3.13,3.13,0,0,1,.9,2.44A3.21,3.21,0,0,1,44.72,15.76Zm-.77-.9a2.44,2.44,0,0,0,.43-1.55A2.43,2.43,0,0,0,44,11.77a1.54,1.54,0,0,0-2.34,0,2.41,2.41,0,0,0-.44,1.54,2.44,2.44,0,0,0,.44,1.55,1.54,1.54,0,0,0,2.34,0Z" style="fill:#fff"/><path d="M46.74,10.36H48v4.86h3v1.06H46.74Z" style="fill:#fff"/><path d="M18.91,22.19a2.26,2.26,0,0,1-1.49.43H16.19v2.13H15V18.83H17.5a2,2,0,0,1,1.4.46,1.78,1.78,0,0,1,.53,1.42A1.85,1.85,0,0,1,18.91,22.19ZM18,20.06a1,1,0,0,0-.66-.2H16.19V21.6H17.3a.93.93,0,0,0,.66-.21.86.86,0,0,0,.24-.67A.81.81,0,0,0,18,20.06Z" style="fill:#fff"/><path d="M25.09,24.23a2.57,2.57,0,0,1-1.94.69,2.6,2.6,0,0,1-1.94-.69,3.21,3.21,0,0,1-.9-2.45,3.13,3.13,0,0,1,.9-2.44,2.6,2.6,0,0,1,1.94-.69,2.57,2.57,0,0,1,1.94.69,3.13,3.13,0,0,1,.9,2.44A3.21,3.21,0,0,1,25.09,24.23Zm-.77-.9a2.44,2.44,0,0,0,.43-1.55,2.43,2.43,0,0,0-.43-1.54,1.54,1.54,0,0,0-2.34,0,2.41,2.41,0,0,0-.44,1.54A2.44,2.44,0,0,0,22,23.33a1.54,1.54,0,0,0,2.34,0Z" style="fill:#fff"/><path d="M30.84,19a1.56,1.56,0,0,1,.56.42,2.07,2.07,0,0,1,.3.5,1.67,1.67,0,0,1,.11.62,1.69,1.69,0,0,1-.22.83,1.16,1.16,0,0,1-.7.57,1.12,1.12,0,0,1,.58.47,2,2,0,0,1,.17.93v.4a3.28,3.28,0,0,0,0,.55.5.5,0,0,0,.23.33v.15H30.54a2,2,0,0,1-.08-.31,3,3,0,0,1-.06-.51v-.56a1.1,1.1,0,0,0-.2-.75,1,1,0,0,0-.7-.19H28.29v2.32H27.08V18.83h2.83A2.68,2.68,0,0,1,30.84,19Zm-2.55.88v1.59h1.33a1.31,1.31,0,0,0,.59-.1.65.65,0,0,0,.35-.66.77.77,0,0,0-.33-.73,1.26,1.26,0,0,0-.58-.1Z" style="fill:#fff"/><path d="M37.41,18.83v1.05H35.64v4.87H34.39V19.88H32.61V18.83Z" style="fill:#fff"/><path d="M43.46,20.73V20a4.47,4.47,0,0,0,.76-.08,1.09,1.09,0,0,0,.56-.3,1.05,1.05,0,0,0,.22-.42.84.84,0,0,0,0-.23h1v5.82H44.83v-4Z" style="fill:#fff"/><circle cx="26.29" cy="51.09" r="1.2" style="fill:#fff"/><circle cx="18.86" cy="51.09" r="1.2" style="fill:#fff"/><circle cx="33.71" cy="51.09" r="1.2" style="fill:#fff"/><circle cx="41.14" cy="51.09" r="1.2" style="fill:#fff"/><circle cx="22.57" cy="43.5" r="1.2" style="fill:#fff"/><circle cx="15.15" cy="43.5" r="1.2" style="fill:#fff"/><circle cx="30" cy="43.5" r="1.2" style="fill:#fff"/><circle cx="37.43" cy="43.5" r="1.2" style="fill:#fff"/><circle cx="44.85" cy="43.5" r="1.2" style="fill:#fff"/><path d="M13,63.63A9.8,9.8,0,0,1,3.6,55.51L1.65,42.26a9.36,9.36,0,0,1,9.44-10.94H48.91a9.36,9.36,0,0,1,9.44,10.94l-2,13.25A9.8,9.8,0,0,1,47,63.63Z" style="fill:none;stroke:#fff;stroke-miterlimit:10"/><path d="M31.24,36q-9.66,0-19.33,0c-2.83,0-4.61,1-5.54,3.79a5.84,5.84,0,0,0-.16,1.46v.07c.26,2,.51,4,.81,6.07.36,2.49.85,5,1.13,7.46a5.61,5.61,0,0,0,3,4.43,4.49,4.49,0,0,0,2.17.52l16.79,0h0c5.6,0,11.2,0,16.79,0a4.55,4.55,0,0,0,2.18-.52,5.6,5.6,0,0,0,3-4.43c.28-2.5.77-5,1.14-7.46.3-2,.54-4,.81-6.07v-.07A7,7,0,0,0,54,39.83C53,37,51.25,36.05,48.42,36Z" style="fill:none;stroke:#fff;stroke-miterlimit:10;stroke-width:2px"/></svg>