<svg xmlns="http://www.w3.org/2000/svg" viewBox="0 0 70 70"><rect x="17.94" y="22.66" width="33.86" height="36.83" rx="1.27" style="fill:none;stroke:#fff;stroke-miterlimit:10"/><path d="M33.69,16.35a2.54,2.54,0,0,1-1.87.65,2.55,2.55,0,0,1-1.88-.65,3,3,0,0,1-.88-2.3,2.91,2.91,0,0,1,.88-2.3,2.51,2.51,0,0,1,1.88-.65,2.5,2.5,0,0,1,1.87.65,2.91,2.91,0,0,1,.87,2.3A3,3,0,0,1,33.69,16.35ZM33,15.5a2.28,2.28,0,0,0,.41-1.45A2.28,2.28,0,0,0,33,12.6a1.4,1.4,0,0,0-1.13-.52,1.38,1.38,0,0,0-1.14.52,2.22,2.22,0,0,0-.43,1.45,2.22,2.22,0,0,0,.43,1.45,1.52,1.52,0,0,0,2.27,0Z" style="fill:#fff;stroke:#fff;stroke-miterlimit:10;stroke-width:0.26194801926612854px"/><path d="M35.91,11.27h1.26l2.27,3.89V11.27h1.12v5.58h-1.2l-2.33-4v4H35.91Z" style="fill:#fff;stroke:#fff;stroke-miterlimit:10;stroke-width:0.26194801926612854px"/><path d="M20.23,38.61v-9.1a2.24,2.24,0,0,1,2.29-2.29H47.23a2.23,2.23,0,0,1,2.29,2.29v9.1Z" style="fill:none;stroke:#fff;stroke-miterlimit:10"/><path d="M50.72,46.42c0,.54-1.2-7.81-1.2-7.81H20.23L19,46.42s-.51,1.93,1.2,1.93H49.52C51.13,48.35,50.72,46.42,50.72,46.42Z" style="fill:none;stroke:#fff;stroke-miterlimit:10"/><path d="M21.82,55.85l-1.28-7.5a3.5,3.5,0,0,1-1-.23,3.4,3.4,0,0,1-.56-.9l-.51-.2v.6Z" style="fill:#fff"/><path d="M47.9,55.85l1.28-7.5a3.5,3.5,0,0,0,1-.23,3.4,3.4,0,0,0,.56-.9l.51-.2v.6Z" style="fill:#fff"/></svg>