<svg xmlns="http://www.w3.org/2000/svg" viewBox="0 0 152 118"><path d="M119.34,100.54c5.86,4.09,14.26-1.5,17.47-7.42a34.82,34.82,0,0,1,9.07-10.63c1.59-1.28,3.16-2.82,3.44-4.72.65-4.36,2.3-8.67,1.69-13.13-.42-3.14-.67-6.48-2.59-9.18a36.45,36.45,0,0,1-5.7-13.94c-1.52-7.08-7.92-11.46-15.14-10.81a77.1,77.1,0,0,0-13.14,2.23c-4,1.06-7.3.36-9.63-3.44a12.24,12.24,0,0,0-6.43-5.42c-4.1.15-8.55.26-11.65,2.94s-6.59,3.72-10.28,4.64a7.16,7.16,0,0,1-6.85-1.91C68.78,29,68,28.2,67.25,27.37a9.81,9.81,0,0,0-7.43-3.55c-4-.08-7.94.21-11.88.08s-7.5,1.2-11.06,2.57a46.89,46.89,0,0,0-4.42,1.93c-3.62,1.85-8,2.47-10.92,5.34-4.05,4-8.62,7.35-12.63,11.42S2.65,53.84,2.74,59.59l.63,6.9A8.82,8.82,0,0,1,2.76,74c-2.1,4.14-3.83,8.46-2,13.15,1.74,4.37,3.58,8.81,7,12.18,5.71,5.72,11.27,7.6,18.93,2.88a22.33,22.33,0,0,1,4.6-2.39c3.23-1.07,6.46-2.05,9.62.84,1,2.87,3.54,5,5.51,7.54s5.11,2.66,7.87,3.66C66.8,116.37,79.7,119.55,92.8,116A60,60,0,0,0,119.34,100.54Z" style="fill:#222"/><path d="M51.26,48.27a.45.45,0,0,1,.45-.45h2c2.3,0,3.45,1,3.45,3.06S56,54,53.72,54H52.55v4.12a.44.44,0,0,1-.45.45h-.39a.44.44,0,0,1-.45-.45Zm2.52,4.56a1.81,1.81,0,0,0,2.07-1.95c0-1.32-.69-1.84-2-1.84H52.55v3.79Z" style="fill:#fff"/><path d="M58.88,48.27a.45.45,0,0,1,.45-.45h2c2.31,0,3.36.9,3.36,2.87A2.66,2.66,0,0,1,63,53.4l1.84,4.77a.3.3,0,0,1-.28.42H64a.52.52,0,0,1-.51-.42l-1.65-4.32H60.17v4.29a.44.44,0,0,1-.45.45h-.39a.44.44,0,0,1-.45-.45Zm2.61,4.41a1.69,1.69,0,0,0,1.92-1.87c0-1.56-.9-1.8-2-1.8h-1.2v3.67Z" style="fill:#fff"/><path d="M66.8,48.27a.45.45,0,0,1,.45-.45h.41a.45.45,0,0,1,.45.45v9.87a.44.44,0,0,1-.45.45h-.41a.44.44,0,0,1-.45-.45Z" style="fill:#fff"/><path d="M70.45,48.27a.44.44,0,0,1,.45-.45h1a.55.55,0,0,1,.52.41l3.05,7h0v-7a.44.44,0,0,1,.45-.45h.3a.45.45,0,0,1,.45.45v9.87a.44.44,0,0,1-.45.45h-.42a.56.56,0,0,1-.53-.4L71.66,50h0v8.11a.44.44,0,0,1-.45.45H70.9a.44.44,0,0,1-.45-.45Z" style="fill:#fff"/><path d="M80.59,49H78.68a.45.45,0,0,1-.45-.45v-.32a.45.45,0,0,1,.45-.45h5.09a.45.45,0,0,1,.45.45v.32a.45.45,0,0,1-.45.45H81.88v9.1a.44.44,0,0,1-.45.45H81a.44.44,0,0,1-.45-.45Z" style="fill:#fff"/><path d="M85.42,55.8l.4-.07a.42.42,0,0,1,.48.37c.27,1,.74,1.46,1.7,1.46A1.46,1.46,0,0,0,89.62,56c0-2.63-4.4-2.28-4.4-5.69a2.44,2.44,0,0,1,2.66-2.62A2.55,2.55,0,0,1,90.59,50a.42.42,0,0,1-.34.51l-.3.06a.47.47,0,0,1-.53-.36c-.27-.85-.72-1.3-1.54-1.3a1.3,1.3,0,0,0-1.46,1.38c0,2.44,4.46,2.14,4.46,5.65A2.65,2.65,0,0,1,88,58.73c-1.63,0-2.47-.78-2.86-2.42A.43.43,0,0,1,85.42,55.8Z" style="fill:#fff"/><path d="M97.46,48.26a.57.57,0,0,1,.56-.44h.91a.57.57,0,0,1,.56.44l2.37,9.9a.35.35,0,0,1-.35.43H101c-.27,0-.37-.18-.43-.43l-.6-2.63H97l-.59,2.63c-.06.25-.13.43-.4.43h-.54a.35.35,0,0,1-.35-.43Zm2.21,6.07L98.48,49h0l-1.18,5.31Z" style="fill:#fff"/><path d="M26.68,73.8l.4-.07a.42.42,0,0,1,.48.37c.27,1,.74,1.46,1.7,1.46A1.46,1.46,0,0,0,30.88,74c0-2.63-4.4-2.28-4.4-5.69a2.44,2.44,0,0,1,2.66-2.62A2.55,2.55,0,0,1,31.85,68a.42.42,0,0,1-.34.51l-.3.06a.47.47,0,0,1-.53-.36c-.27-.85-.72-1.3-1.54-1.3a1.3,1.3,0,0,0-1.46,1.38c0,2.44,4.46,2.14,4.46,5.65a2.65,2.65,0,0,1-2.93,2.84c-1.63,0-2.47-.78-2.86-2.42A.43.43,0,0,1,26.68,73.8Z" style="fill:#fff"/><path d="M35.54,72.14l-2.49-5.91a.3.3,0,0,1,.29-.41h.6c.27,0,.4.17.51.41l1.72,4.38h0l1.85-4.38a.57.57,0,0,1,.54-.41h.54a.29.29,0,0,1,.27.41l-2.55,5.91v4a.44.44,0,0,1-.45.45H36a.44.44,0,0,1-.45-.45Z" style="fill:#fff"/><path d="M40.93,66.27a.44.44,0,0,1,.45-.45h1.15c.27,0,.35.18.41.44l1.9,7.6h0l1.94-7.6c.06-.26.15-.44.42-.44h1.14a.45.45,0,0,1,.45.45v9.87a.44.44,0,0,1-.45.45h-.29a.44.44,0,0,1-.45-.45V67.76h0l-2.13,8.4c-.06.25-.13.43-.4.43h-.39c-.27,0-.36-.18-.42-.43l-2.13-8.4h0v8.38a.44.44,0,0,1-.45.45h-.27a.44.44,0,0,1-.45-.45Z" style="fill:#fff"/><path d="M51.16,66.27a.44.44,0,0,1,.45-.45h1.93c2.34,0,3.47.78,3.47,2.75a2.32,2.32,0,0,1-1.43,2.31v0a2.5,2.5,0,0,1,1.7,2.65c0,2.36-1.49,3-3.57,3h-2.1a.44.44,0,0,1-.45-.45Zm2.38,4.16c1.11,0,2.16-.39,2.16-1.79S54.62,67,53.56,67H52.43v3.41Zm.23,5c1.5,0,2.19-.49,2.19-1.87s-.69-2-2.19-2H52.43v3.84Z" style="fill:#fff"/><path d="M58.64,71.19c0-3.63,1.1-5.5,3.38-5.5s3.39,1.87,3.39,5.5S64.27,76.73,62,76.73,58.64,74.81,58.64,71.19Zm5.45,0c0-3-.74-4.32-2.07-4.32S60,68.22,60,71.19s.76,4.37,2.07,4.37S64.09,74.18,64.09,71.19Z" style="fill:#fff"/><path d="M67.28,66.27a.45.45,0,0,1,.45-.45h.39a.44.44,0,0,1,.45.45v9.11h3.27a.44.44,0,0,1,.45.45v.31a.44.44,0,0,1-.45.45H67.73a.44.44,0,0,1-.45-.45Z" style="fill:#fff"/><path d="M76.33,71.19c0-3.63,1.09-5.5,3.37-5.5s3.39,1.87,3.39,5.5S82,76.73,79.7,76.73,76.33,74.81,76.33,71.19Zm5.44,0c0-3-.73-4.32-2.07-4.32s-2.07,1.35-2.07,4.32.77,4.37,2.07,4.37S81.77,74.18,81.77,71.19Z" style="fill:#fff"/><path d="M85,66.27a.44.44,0,0,1,.45-.45h1a.55.55,0,0,1,.52.41l3,7h0v-7a.44.44,0,0,1,.45-.45h.3a.45.45,0,0,1,.45.45v9.87a.44.44,0,0,1-.45.45h-.42a.56.56,0,0,1-.53-.4L86.18,68h0v8.11a.44.44,0,0,1-.45.45h-.28a.44.44,0,0,1-.45-.45Z" style="fill:#fff"/><path d="M98.33,72.14l-2.49-5.91a.3.3,0,0,1,.29-.41h.6c.27,0,.4.17.51.41L99,70.61h0l1.85-4.38a.57.57,0,0,1,.54-.41h.54a.29.29,0,0,1,.27.41l-2.55,5.91v4a.44.44,0,0,1-.45.45h-.41a.44.44,0,0,1-.45-.45Z" style="fill:#fff"/><path d="M103,71.19c0-3.63,1.1-5.5,3.38-5.5s3.39,1.87,3.39,5.5-1.14,5.54-3.39,5.54S103,74.81,103,71.19Zm5.45,0c0-3-.74-4.32-2.07-4.32s-2.07,1.35-2.07,4.32.76,4.37,2.07,4.37S108.4,74.18,108.4,71.19Z" style="fill:#fff"/><path d="M111.53,66.27a.45.45,0,0,1,.45-.45h.41a.45.45,0,0,1,.45.45v7.22c0,1.47.54,2.05,1.74,2.05s1.83-.58,1.83-2.05V66.27a.44.44,0,0,1,.45-.45h.39a.45.45,0,0,1,.45.45v7c0,2.24-1,3.42-3.12,3.42s-3-1.18-3-3.42Z" style="fill:#fff"/><path d="M120,66.27a.45.45,0,0,1,.45-.45h2c2.31,0,3.36.9,3.36,2.87a2.66,2.66,0,0,1-1.69,2.71L126,76.17a.3.3,0,0,1-.28.42h-.62a.52.52,0,0,1-.51-.42l-1.65-4.32h-1.65v4.29a.44.44,0,0,1-.45.45h-.39a.44.44,0,0,1-.45-.45Zm2.61,4.41a1.69,1.69,0,0,0,1.92-1.87c0-1.56-.9-1.8-2-1.8h-1.2v3.67Z" style="fill:#fff"/><path d="M46.9,85H45a.45.45,0,0,1-.45-.45v-.32a.45.45,0,0,1,.45-.45h5.09a.45.45,0,0,1,.45.45v.32a.45.45,0,0,1-.45.45H48.19v9.1a.44.44,0,0,1-.45.45h-.39a.44.44,0,0,1-.45-.45Z" style="fill:#fff"/><path d="M51.31,84.26a.36.36,0,0,1,.34-.44h.57c.27,0,.39.18.45.44l1.88,8h0l1.93-8c.06-.26.2-.44.47-.44h.55a.36.36,0,0,1,.35.44l-2.52,9.9a.57.57,0,0,1-.56.43h-.45a.56.56,0,0,1-.55-.43Z" style="fill:#fff"/><path d="M62.44,84.27a.44.44,0,0,1,.45-.45h1.6c3.06,0,4.32,1.56,4.32,5.28s-1.27,5.49-4.35,5.49H62.89a.44.44,0,0,1-.45-.45Zm2.13,9.08c2,0,2.94-1.29,2.94-4.23s-.89-4.05-2.87-4.05h-.9v8.28Z" style="fill:#fff"/><path d="M70.7,84.27a.45.45,0,0,1,.45-.45h.41a.45.45,0,0,1,.45.45v9.87a.44.44,0,0,1-.45.45h-.41a.44.44,0,0,1-.45-.45Z" style="fill:#fff"/><path d="M74.12,91.8l.41-.07a.42.42,0,0,1,.48.37c.27,1,.73,1.46,1.69,1.46A1.46,1.46,0,0,0,78.32,92c0-2.63-4.39-2.28-4.39-5.69a2.44,2.44,0,0,1,2.65-2.62A2.57,2.57,0,0,1,79.3,86a.44.44,0,0,1-.35.51l-.3.06a.45.45,0,0,1-.52-.36c-.27-.85-.72-1.3-1.55-1.3a1.29,1.29,0,0,0-1.45,1.38c0,2.44,4.45,2.14,4.45,5.65a2.92,2.92,0,0,1-5.79.42A.44.44,0,0,1,74.12,91.8Z" style="fill:#fff"/><path d="M81.4,84.27a.44.44,0,0,1,.45-.45h2c2.29,0,3.45,1,3.45,3.06S86.09,90,83.86,90H82.69v4.12a.44.44,0,0,1-.45.45h-.39a.44.44,0,0,1-.45-.45Zm2.52,4.56a1.81,1.81,0,0,0,2.07-2C86,85.56,85.3,85,84,85H82.69v3.79Z" style="fill:#fff"/><path d="M89,84.27a.44.44,0,0,1,.45-.45h.39a.45.45,0,0,1,.45.45v9.11h3.27a.44.44,0,0,1,.45.45v.31a.44.44,0,0,1-.45.45H89.47a.44.44,0,0,1-.45-.45Z" style="fill:#fff"/><path d="M97.18,84.26a.56.56,0,0,1,.55-.44h.92a.56.56,0,0,1,.55.44l2.37,9.9a.35.35,0,0,1-.34.43h-.54c-.27,0-.38-.18-.44-.43l-.6-2.63H96.71l-.58,2.63c-.06.25-.14.43-.41.43h-.54a.35.35,0,0,1-.34-.43Zm2.2,6.07L98.2,85h0L97,90.33Z" style="fill:#fff"/><path d="M104.11,90.14l-2.49-5.91a.3.3,0,0,1,.28-.41h.6c.27,0,.41.17.51.41l1.73,4.38h0l1.84-4.38a.57.57,0,0,1,.54-.41h.54a.28.28,0,0,1,.27.41l-2.55,5.91v4a.44.44,0,0,1-.45.45h-.4a.44.44,0,0,1-.45-.45Z" style="fill:#fff"/><path d="M126.46,62.42l-19-.1v-19l19.26-.06Zm-18.4-.62h17.56l.11-.87.11-.25L126,44l-17.89,0Z" style="fill:#fff"/><path d="M120.76,46c-2.2-.08-3.68,4.08-3.68,4.08s-1.82-4-4-3.9-3.08,2.85-3,4.06c.15,1.51,7.22,9.78,7.22,9.78s6.64-7.19,6.7-9.68S123.17,46.09,120.76,46Z" style="fill:#fff"/><rect x="99.77" y="17.52" width="28.81" height="0.34" transform="translate(16.49 79.4) rotate(-41.09)" style="fill:#222;stroke:#222;stroke-miterlimit:90;stroke-width:1.3959231140477746px"/><polygon points="125.93 9.25 131.22 2.94 124.14 7.2 125.93 9.25" style="fill:#222;stroke:#222;stroke-miterlimit:90;stroke-width:1.3959231140477746px"/><rect x="97" y="24.89" width="1.63" height="13.99" transform="translate(138.07 126.56) rotate(-131.09)" style="fill:#fff"/></svg>